<?xml version="1.0" encoding="UTF-8"?>
<svg xmlns="http://www.w3.org/2000/svg" xmlns:xlink="http://www.w3.org/1999/xlink" width="115.3pt" height="41.1pt" viewBox="0 0 115.3 41.1" version="1.1">
<defs>
<clipPath id="clip1">
  <path d="M 63 13 L 115.300781 13 L 115.300781 33 L 63 33 Z M 63 13 "/>
</clipPath>
<clipPath id="clip2">
  <path d="M 58 0 L 77 0 L 77 41.101563 L 58 41.101563 Z M 58 0 "/>
</clipPath>
</defs>
<g id="surface1">
<g clip-path="url(#clip1)" clip-rule="nonzero">
<path style=" stroke:none;fill-rule:evenodd;fill:rgb(88.671875%,3.137207%,14.501953%);fill-opacity:1;" d="M 69.160156 22.496094 L 75.652344 22.683594 L 75.652344 24.785156 L 75.464844 25.359375 L 75.273438 25.550781 L 75.082031 25.933594 L 63.808594 26.125 L 63.617188 27.460938 L 63.617188 27.652344 L 63.808594 27.84375 L 66.484375 28.035156 L 78.710938 28.035156 C 81.300781 26.738281 83.0625 22.554688 82.148438 19.820313 L 81.195313 19.246094 L 74.890625 19.054688 L 74.949219 16.128906 L 84.648438 16.382813 L 80.238281 32.429688 L 85.015625 32.621094 L 88.070313 23.832031 L 92.234375 28.609375 L 97.242188 28.609375 L 93.613281 22.496094 L 93.804688 21.921875 C 94.636719 21.085938 97.1875 19.4375 98.386719 19.4375 L 99.152344 19.628906 C 103.566406 24.648438 103.132813 27.199219 98.578125 31.664063 L 103.929688 31.664063 L 115.390625 17.910156 L 115.390625 17.445313 L 110.042969 17.445313 L 106.222656 22.683594 L 105.648438 22.683594 L 104.308594 17.445313 L 93.804688 17.335938 C 93.625 17.316406 90.226563 20.382813 89 20.582031 C 89.480469 18.472656 90.03125 16.378906 90.554688 14.28125 L 90.554688 13.898438 L 85.78125 13.707031 L 71.453125 13.707031 C 68.046875 15.40625 67.9375 19.441406 69.160156 22.496094 Z M 69.160156 22.496094 "/>
</g>
<path style=" stroke:none;fill-rule:evenodd;fill:rgb(0%,61.914063%,87.889099%);fill-opacity:1;" d="M 45.175781 28.03125 L 47.792969 20.660156 L 50.40625 28.136719 L 56.523438 28.136719 L 50.5625 13.5 L 44.96875 13.5 L 39.0625 28.03125 Z M 45.175781 28.03125 "/>
<path style=" stroke:none;fill-rule:evenodd;fill:rgb(0%,61.914063%,87.889099%);fill-opacity:1;" d="M 17.886719 28.03125 L 20.5 20.660156 L 23.117188 28.136719 L 29.230469 28.136719 L 23.273438 13.5 L 17.675781 13.5 L 11.769531 28.03125 Z M 17.886719 28.03125 "/>
<path style=" stroke:none;fill-rule:evenodd;fill:rgb(0%,61.914063%,87.889099%);fill-opacity:1;" d="M 27.296875 13.707031 L 27.296875 18.203125 L 31.53125 18.203125 L 31.53125 27.980469 L 37.335938 27.980469 L 37.335938 18.203125 L 40.785156 18.203125 L 40.785156 13.707031 Z M 27.296875 13.707031 "/>
<path style=" stroke:none;fill-rule:evenodd;fill:rgb(0%,61.914063%,87.889099%);fill-opacity:1;" d="M 0.0078125 13.863281 L 0.0078125 18.359375 L 4.242188 18.359375 L 4.242188 28.136719 L 10.046875 28.136719 L 10.046875 18.359375 L 13.496094 18.359375 L 13.496094 13.863281 Z M 0.0078125 13.863281 "/>
<g clip-path="url(#clip2)" clip-rule="nonzero">
<path style=" stroke:none;fill-rule:evenodd;fill:rgb(89.0625%,0%,8.616638%);fill-opacity:1;" d="M 65.085938 41.089844 C 53.128906 28.578125 57.527344 7.105469 76.917969 -0.0898438 C 63.527344 9.25 56.882813 21.78125 65.085938 41.089844 Z M 65.085938 41.089844 "/>
</g>
</g>
</svg>
