<?xml version="1.0" encoding="UTF-8"?>
<svg xmlns="http://www.w3.org/2000/svg" xmlns:xlink="http://www.w3.org/1999/xlink" width="59.5pt" height="51.3pt" viewBox="0 0 59.5 51.3" version="1.1">
<defs>
<clipPath id="clip1">
  <path d="M 0 43 L 59.5 43 L 59.5 51.300781 L 0 51.300781 Z M 0 43 "/>
</clipPath>
</defs>
<g id="surface1">
<path style=" stroke:none;fill-rule:evenodd;fill:rgb(6.272888%,16.479492%,51.367188%);fill-opacity:1;" d="M 32.886719 15.359375 C 32.277344 15.785156 31.472656 15.847656 30.851563 15.574219 C 30.851563 15.574219 30.683594 15.507813 30.527344 15.339844 C 30.390625 15.179688 26.957031 11.539063 26.957031 11.539063 L 26.945313 11.53125 C 28.007813 11.710938 29.167969 11.230469 29.769531 10.363281 C 30.367188 9.535156 30.34375 8.355469 29.78125 7.527344 C 29.101563 6.628906 27.78125 6.332031 26.671875 6.46875 C 24.753906 6.722656 23.375 8.324219 22.945313 10 C 22.503906 11.910156 22.820313 13.714844 23.511719 15.414063 C 23.667969 15.773438 23.882813 16.144531 24.144531 16.464844 C 22.121094 15.636719 20.335938 14.109375 19.398438 12.058594 C 18.359375 9.851563 18.382813 7.0625 19.613281 4.824219 C 20.585938 3.09375 22.300781 1.492188 24.425781 0.8125 C 26.652344 -0.046875 29.644531 0.132813 31.8125 1.277344 C 34.445313 2.511719 36.433594 5.578125 36.445313 8.3125 C 36.535156 11.148438 35.203125 13.714844 32.886719 15.359375 Z M 32.886719 15.359375 "/>
<path style=" stroke:none;fill-rule:evenodd;fill:rgb(89.0625%,0%,8.616638%);fill-opacity:1;" d="M 25.5 16.554688 C 24.515625 15.558594 23.726563 14.261719 24.324219 12.914063 C 24.855469 11.886719 25.328125 10.835938 25.554688 9.648438 C 25.644531 10.890625 26.449219 11.992188 26.832031 13.179688 C 26.976563 13.753906 26.988281 14.347656 26.753906 14.941406 C 26.492188 15.589844 26.074219 16.140625 25.578125 16.640625 Z M 25.5 16.554688 "/>
<path style=" stroke:none;fill-rule:evenodd;fill:rgb(89.0625%,0%,8.616638%);fill-opacity:1;" d="M 12.070313 23.929688 C 12.070313 23.984375 12.0625 24.03125 12.042969 24.070313 C 12.023438 24.105469 11.976563 24.136719 11.902344 24.160156 C 11.832031 24.1875 11.726563 24.207031 11.585938 24.214844 C 11.449219 24.226563 11.257813 24.230469 11.015625 24.230469 C 10.816406 24.230469 10.652344 24.226563 10.535156 24.214844 C 10.414063 24.207031 10.316406 24.183594 10.246094 24.160156 C 10.179688 24.128906 10.128906 24.09375 10.101563 24.054688 C 10.070313 24.011719 10.046875 23.957031 10.027344 23.898438 L 9.191406 21.722656 C 9.089844 21.472656 8.992188 21.253906 8.894531 21.066406 C 8.796875 20.875 8.691406 20.714844 8.570313 20.585938 C 8.453125 20.457031 8.316406 20.363281 8.164063 20.296875 C 8.007813 20.230469 7.832031 20.199219 7.628906 20.199219 L 7.039063 20.199219 L 7.039063 23.914063 C 7.039063 23.964844 7.023438 24.011719 6.992188 24.046875 C 6.960938 24.089844 6.90625 24.125 6.835938 24.144531 C 6.761719 24.171875 6.667969 24.191406 6.546875 24.207031 C 6.425781 24.222656 6.273438 24.230469 6.085938 24.230469 C 5.902344 24.230469 5.75 24.222656 5.625 24.207031 C 5.503906 24.191406 5.40625 24.171875 5.332031 24.144531 C 5.261719 24.125 5.210938 24.089844 5.183594 24.046875 C 5.152344 24.011719 5.136719 23.964844 5.136719 23.914063 L 5.136719 15.058594 C 5.136719 14.835938 5.191406 14.679688 5.300781 14.582031 C 5.410156 14.484375 5.542969 14.433594 5.703125 14.433594 L 8.121094 14.433594 C 8.367188 14.433594 8.570313 14.4375 8.726563 14.449219 C 8.886719 14.460938 9.03125 14.472656 9.160156 14.484375 C 9.535156 14.542969 9.875 14.636719 10.175781 14.773438 C 10.476563 14.910156 10.730469 15.085938 10.941406 15.304688 C 11.148438 15.523438 11.308594 15.78125 11.421875 16.078125 C 11.53125 16.378906 11.585938 16.722656 11.585938 17.109375 C 11.585938 17.433594 11.546875 17.734375 11.46875 18 C 11.390625 18.269531 11.269531 18.511719 11.117188 18.722656 C 10.960938 18.933594 10.773438 19.113281 10.546875 19.273438 C 10.320313 19.425781 10.0625 19.550781 9.773438 19.648438 C 9.914063 19.71875 10.046875 19.804688 10.167969 19.90625 C 10.289063 20.003906 10.40625 20.125 10.515625 20.269531 C 10.621094 20.414063 10.726563 20.574219 10.820313 20.757813 C 10.917969 20.945313 11.011719 21.148438 11.101563 21.382813 L 11.890625 23.304688 C 11.964844 23.492188 12.011719 23.632813 12.035156 23.722656 C 12.058594 23.808594 12.070313 23.878906 12.070313 23.929688 Z M 9.621094 17.3125 C 9.621094 16.992188 9.550781 16.71875 9.414063 16.5 C 9.273438 16.277344 9.042969 16.121094 8.726563 16.03125 C 8.632813 16.003906 8.523438 15.984375 8.398438 15.972656 C 8.277344 15.957031 8.105469 15.949219 7.890625 15.949219 L 7.039063 15.949219 L 7.039063 18.714844 L 8.003906 18.714844 C 8.277344 18.714844 8.511719 18.679688 8.710938 18.609375 C 8.914063 18.542969 9.085938 18.449219 9.21875 18.324219 C 9.351563 18.203125 9.453125 18.054688 9.519531 17.886719 C 9.589844 17.714844 9.621094 17.523438 9.621094 17.3125 Z M 9.621094 17.3125 "/>
<path style=" stroke:none;fill-rule:evenodd;fill:rgb(89.0625%,0%,8.616638%);fill-opacity:1;" d="M 19.414063 20.371094 C 19.414063 20.601563 19.367188 20.773438 19.265625 20.886719 C 19.167969 20.996094 19.03125 21.050781 18.859375 21.050781 L 14.9375 21.050781 C 14.9375 21.335938 14.972656 21.597656 15.035156 21.828125 C 15.101563 22.0625 15.207031 22.261719 15.347656 22.425781 C 15.488281 22.585938 15.671875 22.714844 15.894531 22.796875 C 16.121094 22.882813 16.386719 22.925781 16.703125 22.925781 C 17.019531 22.925781 17.296875 22.902344 17.535156 22.855469 C 17.777344 22.804688 17.988281 22.753906 18.164063 22.695313 C 18.339844 22.640625 18.484375 22.585938 18.597656 22.539063 C 18.714844 22.488281 18.808594 22.464844 18.878906 22.464844 C 18.925781 22.464844 18.960938 22.472656 18.988281 22.492188 C 19.019531 22.511719 19.042969 22.542969 19.0625 22.585938 C 19.078125 22.632813 19.09375 22.695313 19.101563 22.78125 C 19.109375 22.863281 19.113281 22.964844 19.113281 23.089844 C 19.113281 23.203125 19.109375 23.296875 19.105469 23.375 C 19.101563 23.453125 19.09375 23.519531 19.082031 23.574219 C 19.074219 23.628906 19.0625 23.675781 19.039063 23.714844 C 19.019531 23.753906 18.996094 23.789063 18.964844 23.824219 C 18.933594 23.859375 18.847656 23.90625 18.707031 23.964844 C 18.566406 24.023438 18.390625 24.085938 18.171875 24.144531 C 17.957031 24.199219 17.710938 24.25 17.429688 24.292969 C 17.152344 24.335938 16.851563 24.355469 16.535156 24.355469 C 15.960938 24.355469 15.460938 24.28125 15.027344 24.128906 C 14.597656 23.980469 14.238281 23.753906 13.949219 23.445313 C 13.660156 23.140625 13.445313 22.753906 13.304688 22.285156 C 13.164063 21.820313 13.089844 21.269531 13.089844 20.644531 C 13.089844 20.046875 13.164063 19.507813 13.316406 19.027344 C 13.464844 18.546875 13.679688 18.140625 13.964844 17.804688 C 14.25 17.472656 14.59375 17.214844 15 17.042969 C 15.40625 16.863281 15.867188 16.777344 16.375 16.777344 C 16.917969 16.777344 17.378906 16.859375 17.757813 17.027344 C 18.140625 17.191406 18.457031 17.421875 18.699219 17.714844 C 18.945313 18.007813 19.128906 18.355469 19.242188 18.761719 C 19.359375 19.160156 19.414063 19.597656 19.414063 20.070313 Z M 17.652344 19.832031 C 17.667969 19.296875 17.566406 18.878906 17.347656 18.574219 C 17.128906 18.269531 16.789063 18.121094 16.332031 18.121094 C 16.101563 18.121094 15.902344 18.164063 15.730469 18.253906 C 15.558594 18.34375 15.417969 18.46875 15.304688 18.617188 C 15.191406 18.773438 15.105469 18.953125 15.042969 19.160156 C 14.984375 19.371094 14.949219 19.59375 14.9375 19.832031 Z M 17.652344 19.832031 "/>
<path style=" stroke:none;fill-rule:evenodd;fill:rgb(89.0625%,0%,8.616638%);fill-opacity:1;" d="M 22.382813 23.929688 C 22.382813 23.980469 22.390625 24.023438 22.363281 24.0625 C 22.332031 24.097656 22.28125 24.128906 22.214844 24.152344 C 22.140625 24.179688 22.050781 24.199219 21.933594 24.210938 C 21.820313 24.222656 21.671875 24.230469 21.492188 24.230469 C 21.316406 24.230469 21.167969 24.222656 21.054688 24.210938 C 20.9375 24.199219 20.847656 24.179688 20.777344 24.152344 C 20.707031 24.128906 20.65625 24.097656 20.628906 24.0625 C 20.601563 24.023438 20.585938 23.980469 20.585938 23.929688 C 20.585938 21.257813 20.585938 18.585938 20.585938 15.917969 C 21.039063 16.316406 21.542969 16.664063 22.382813 16.675781 Z M 22.382813 23.929688 "/>
<path style=" stroke:none;fill-rule:evenodd;fill:rgb(89.0625%,0%,8.616638%);fill-opacity:1;" d="M 26.527344 23.929688 C 26.527344 23.980469 26.515625 24.023438 26.484375 24.0625 C 26.457031 24.097656 26.40625 24.128906 26.335938 24.152344 C 26.265625 24.179688 26.171875 24.199219 26.058594 24.210938 C 25.941406 24.222656 25.796875 24.230469 25.617188 24.230469 C 25.4375 24.230469 25.292969 24.222656 25.179688 24.210938 C 25.0625 24.199219 24.96875 24.179688 24.898438 24.152344 C 24.828125 24.128906 24.777344 24.097656 24.75 24.0625 C 24.722656 24.023438 24.707031 23.980469 24.707031 23.929688 C 24.707031 21.691406 24.707031 19.457031 24.707031 17.222656 C 25.3125 17.511719 25.921875 17.480469 26.527344 17.222656 Z M 26.527344 23.929688 "/>
<path style=" stroke:none;fill-rule:evenodd;fill:rgb(89.0625%,0%,8.616638%);fill-opacity:1;" d="M 34.074219 23.949219 C 34.074219 24.023438 34.050781 24.078125 34 24.117188 C 33.953125 24.15625 33.878906 24.183594 33.773438 24.203125 C 33.667969 24.222656 33.515625 24.230469 33.316406 24.230469 C 33.097656 24.230469 32.941406 24.222656 32.839844 24.203125 C 32.742188 24.183594 32.675781 24.15625 32.632813 24.117188 C 32.59375 24.078125 32.570313 24.023438 32.570313 23.949219 L 32.570313 23.414063 C 32.304688 23.710938 32.003906 23.941406 31.664063 24.109375 C 31.324219 24.273438 30.949219 24.355469 30.535156 24.355469 C 30.191406 24.355469 29.878906 24.3125 29.59375 24.21875 C 29.308594 24.125 29.058594 23.988281 28.847656 23.804688 C 28.640625 23.621094 28.476563 23.394531 28.359375 23.121094 C 28.246094 22.851563 28.1875 22.535156 28.1875 22.171875 C 28.1875 21.78125 28.261719 21.441406 28.40625 21.152344 C 28.554688 20.863281 28.773438 20.625 29.066406 20.433594 C 29.355469 20.246094 29.71875 20.109375 30.152344 20.019531 C 30.585938 19.929688 31.089844 19.882813 31.660156 19.882813 L 32.289063 19.882813 L 32.289063 19.476563 C 32.289063 19.265625 32.269531 19.078125 32.226563 18.921875 C 32.1875 18.761719 32.121094 18.632813 32.027344 18.527344 C 31.933594 18.421875 31.804688 18.34375 31.652344 18.292969 C 31.492188 18.242188 31.300781 18.21875 31.070313 18.21875 C 30.765625 18.21875 30.496094 18.25 30.257813 18.324219 C 30.019531 18.390625 29.808594 18.46875 29.625 18.558594 C 29.441406 18.640625 29.289063 18.71875 29.167969 18.789063 C 29.042969 18.859375 28.945313 18.894531 28.867188 18.894531 C 28.8125 18.894531 28.765625 18.878906 28.726563 18.84375 C 28.6875 18.804688 28.652344 18.757813 28.625 18.691406 C 28.601563 18.625 28.578125 18.546875 28.5625 18.453125 C 28.546875 18.355469 28.542969 18.25 28.542969 18.132813 C 28.542969 17.976563 28.554688 17.855469 28.578125 17.765625 C 28.601563 17.675781 28.648438 17.59375 28.714844 17.519531 C 28.78125 17.445313 28.902344 17.367188 29.066406 17.277344 C 29.238281 17.191406 29.433594 17.109375 29.664063 17.035156 C 29.886719 16.957031 30.136719 16.898438 30.402344 16.847656 C 30.667969 16.800781 30.945313 16.777344 31.226563 16.777344 C 31.734375 16.777344 32.167969 16.828125 32.523438 16.929688 C 32.882813 17.035156 33.175781 17.195313 33.410156 17.40625 C 33.640625 17.621094 33.808594 17.894531 33.914063 18.234375 C 34.019531 18.566406 34.074219 18.96875 34.074219 19.429688 Z M 32.289063 21.074219 L 31.597656 21.074219 C 31.304688 21.074219 31.050781 21.09375 30.84375 21.140625 C 30.636719 21.1875 30.46875 21.253906 30.339844 21.34375 C 30.210938 21.433594 30.117188 21.542969 30.054688 21.671875 C 29.996094 21.800781 29.964844 21.945313 29.964844 22.113281 C 29.964844 22.394531 30.050781 22.617188 30.222656 22.773438 C 30.390625 22.9375 30.628906 23.015625 30.929688 23.015625 C 31.1875 23.015625 31.421875 22.949219 31.636719 22.8125 C 31.851563 22.675781 32.066406 22.480469 32.289063 22.21875 Z M 32.289063 21.074219 "/>
<path style=" stroke:none;fill-rule:evenodd;fill:rgb(89.0625%,0%,8.616638%);fill-opacity:1;" d="M 41.957031 23.929688 C 41.957031 23.980469 41.941406 24.023438 41.914063 24.0625 C 41.882813 24.097656 41.835938 24.128906 41.769531 24.152344 C 41.703125 24.179688 41.609375 24.199219 41.488281 24.210938 C 41.371094 24.222656 41.226563 24.230469 41.054688 24.230469 C 40.875 24.230469 40.726563 24.222656 40.609375 24.210938 C 40.492188 24.199219 40.398438 24.179688 40.332031 24.152344 C 40.265625 24.128906 40.214844 24.097656 40.1875 24.0625 C 40.160156 24.023438 40.144531 23.980469 40.144531 23.929688 L 40.144531 20.09375 C 40.144531 19.765625 40.121094 19.511719 40.074219 19.324219 C 40.027344 19.136719 39.964844 18.980469 39.875 18.84375 C 39.789063 18.714844 39.679688 18.609375 39.539063 18.535156 C 39.40625 18.464844 39.246094 18.429688 39.058594 18.429688 C 38.832031 18.429688 38.597656 18.515625 38.359375 18.691406 C 38.125 18.867188 37.878906 19.121094 37.621094 19.460938 L 37.621094 23.929688 C 37.621094 23.980469 37.609375 24.023438 37.582031 24.0625 C 37.550781 24.097656 37.5 24.128906 37.433594 24.152344 C 37.359375 24.179688 37.269531 24.199219 37.15625 24.210938 C 37.039063 24.222656 36.894531 24.230469 36.714844 24.230469 C 36.535156 24.230469 36.386719 24.222656 36.273438 24.210938 C 36.160156 24.199219 36.066406 24.179688 35.996094 24.152344 C 35.925781 24.128906 35.875 24.097656 35.847656 24.0625 C 35.820313 24.023438 35.804688 23.980469 35.804688 23.929688 L 35.804688 17.207031 C 35.804688 17.15625 35.816406 17.113281 35.839844 17.074219 C 35.867188 17.035156 35.90625 17.007813 35.972656 16.980469 C 36.03125 16.953125 36.113281 16.9375 36.214844 16.921875 C 36.3125 16.910156 36.433594 16.90625 36.585938 16.90625 C 36.738281 16.90625 36.867188 16.910156 36.96875 16.921875 C 37.066406 16.9375 37.148438 16.953125 37.203125 16.980469 C 37.257813 17.007813 37.296875 17.035156 37.320313 17.074219 C 37.34375 17.113281 37.355469 17.15625 37.355469 17.207031 L 37.355469 17.984375 C 37.714844 17.582031 38.078125 17.277344 38.445313 17.078125 C 38.8125 16.878906 39.195313 16.777344 39.59375 16.777344 C 40.035156 16.777344 40.402344 16.851563 40.703125 17.003906 C 41.003906 17.15625 41.25 17.359375 41.433594 17.617188 C 41.617188 17.875 41.75 18.179688 41.832031 18.527344 C 41.917969 18.875 41.957031 19.289063 41.957031 19.777344 Z M 41.957031 23.929688 "/>
<path style=" stroke:none;fill-rule:evenodd;fill:rgb(89.0625%,0%,8.616638%);fill-opacity:1;" d="M 47.960938 22.859375 C 47.960938 22.988281 47.957031 23.097656 47.949219 23.1875 C 47.941406 23.273438 47.933594 23.347656 47.921875 23.40625 C 47.910156 23.46875 47.894531 23.519531 47.878906 23.554688 C 47.859375 23.59375 47.824219 23.640625 47.765625 23.699219 C 47.707031 23.753906 47.609375 23.828125 47.46875 23.910156 C 47.332031 23.992188 47.171875 24.066406 46.992188 24.128906 C 46.816406 24.199219 46.621094 24.25 46.410156 24.289063 C 46.203125 24.332031 45.988281 24.347656 45.765625 24.347656 C 45.269531 24.347656 44.832031 24.269531 44.449219 24.109375 C 44.066406 23.949219 43.746094 23.710938 43.484375 23.398438 C 43.226563 23.082031 43.027344 22.699219 42.898438 22.246094 C 42.765625 21.796875 42.699219 21.277344 42.699219 20.695313 C 42.699219 20.023438 42.777344 19.441406 42.9375 18.949219 C 43.101563 18.460938 43.324219 18.054688 43.613281 17.734375 C 43.902344 17.414063 44.246094 17.171875 44.640625 17.019531 C 45.035156 16.863281 45.46875 16.785156 45.9375 16.785156 C 46.132813 16.785156 46.320313 16.800781 46.503906 16.839844 C 46.691406 16.871094 46.863281 16.921875 47.027344 16.980469 C 47.1875 17.042969 47.332031 17.109375 47.460938 17.183594 C 47.585938 17.261719 47.675781 17.324219 47.730469 17.378906 C 47.78125 17.433594 47.820313 17.480469 47.839844 17.519531 C 47.863281 17.554688 47.878906 17.605469 47.894531 17.667969 C 47.90625 17.726563 47.914063 17.800781 47.921875 17.886719 C 47.929688 17.976563 47.933594 18.082031 47.933594 18.210938 C 47.933594 18.5 47.90625 18.707031 47.859375 18.824219 C 47.8125 18.941406 47.75 19 47.671875 19 C 47.589844 19 47.503906 18.964844 47.414063 18.894531 C 47.320313 18.824219 47.214844 18.746094 47.085938 18.664063 C 46.960938 18.574219 46.8125 18.496094 46.640625 18.429688 C 46.464844 18.355469 46.257813 18.324219 46.019531 18.324219 C 45.546875 18.324219 45.1875 18.511719 44.933594 18.890625 C 44.6875 19.269531 44.5625 19.828125 44.5625 20.558594 C 44.5625 20.921875 44.589844 21.238281 44.65625 21.515625 C 44.714844 21.792969 44.808594 22.023438 44.933594 22.210938 C 45.054688 22.398438 45.210938 22.535156 45.394531 22.628906 C 45.578125 22.722656 45.796875 22.769531 46.039063 22.769531 C 46.292969 22.769531 46.503906 22.730469 46.6875 22.652344 C 46.867188 22.574219 47.027344 22.488281 47.160156 22.390625 C 47.292969 22.296875 47.40625 22.210938 47.5 22.132813 C 47.589844 22.050781 47.667969 22.015625 47.730469 22.015625 C 47.773438 22.015625 47.808594 22.027344 47.839844 22.050781 C 47.867188 22.078125 47.890625 22.125 47.90625 22.191406 C 47.925781 22.257813 47.9375 22.347656 47.949219 22.453125 C 47.957031 22.558594 47.960938 22.691406 47.960938 22.859375 Z M 47.960938 22.859375 "/>
<path style=" stroke:none;fill-rule:evenodd;fill:rgb(89.0625%,0%,8.616638%);fill-opacity:1;" d="M 55.226563 20.371094 C 55.226563 20.601563 55.175781 20.773438 55.078125 20.886719 C 54.980469 20.996094 54.84375 21.050781 54.671875 21.050781 L 50.75 21.050781 C 50.75 21.335938 50.78125 21.597656 50.847656 21.828125 C 50.914063 22.0625 51.015625 22.261719 51.15625 22.425781 C 51.300781 22.585938 51.480469 22.714844 51.707031 22.796875 C 51.929688 22.882813 52.199219 22.925781 52.511719 22.925781 C 52.828125 22.925781 53.109375 22.902344 53.347656 22.855469 C 53.589844 22.804688 53.796875 22.753906 53.972656 22.695313 C 54.148438 22.640625 54.292969 22.585938 54.410156 22.539063 C 54.527344 22.488281 54.621094 22.464844 54.691406 22.464844 C 54.734375 22.464844 54.773438 22.472656 54.800781 22.492188 C 54.828125 22.511719 54.851563 22.542969 54.871094 22.585938 C 54.890625 22.632813 54.90625 22.695313 54.914063 22.78125 C 54.917969 22.863281 54.921875 22.964844 54.921875 23.089844 C 54.921875 23.203125 54.921875 23.296875 54.914063 23.375 C 54.910156 23.453125 54.902344 23.519531 54.894531 23.574219 C 54.886719 23.628906 54.871094 23.675781 54.851563 23.714844 C 54.832031 23.753906 54.808594 23.789063 54.773438 23.824219 C 54.742188 23.859375 54.660156 23.90625 54.519531 23.964844 C 54.378906 24.023438 54.199219 24.085938 53.984375 24.144531 C 53.765625 24.199219 53.519531 24.25 53.242188 24.292969 C 52.960938 24.335938 52.664063 24.355469 52.34375 24.355469 C 51.773438 24.355469 51.269531 24.28125 50.839844 24.128906 C 50.410156 23.980469 50.050781 23.753906 49.757813 23.445313 C 49.472656 23.140625 49.257813 22.753906 49.113281 22.285156 C 48.972656 21.820313 48.902344 21.269531 48.902344 20.644531 C 48.902344 20.046875 48.976563 19.507813 49.125 19.027344 C 49.273438 18.546875 49.492188 18.140625 49.773438 17.804688 C 50.058594 17.472656 50.40625 17.214844 50.8125 17.042969 C 51.21875 16.863281 51.675781 16.777344 52.1875 16.777344 C 52.726563 16.777344 53.1875 16.859375 53.570313 17.027344 C 53.953125 17.191406 54.265625 17.421875 54.511719 17.714844 C 54.757813 18.007813 54.9375 18.355469 55.054688 18.761719 C 55.167969 19.160156 55.226563 19.597656 55.226563 20.070313 Z M 53.464844 19.832031 C 53.476563 19.296875 53.378906 18.878906 53.15625 18.574219 C 52.9375 18.269531 52.601563 18.121094 52.140625 18.121094 C 51.910156 18.121094 51.710938 18.164063 51.539063 18.253906 C 51.367188 18.34375 51.226563 18.46875 51.113281 18.617188 C 51 18.773438 50.914063 18.953125 50.851563 19.160156 C 50.792969 19.371094 50.757813 19.59375 50.75 19.832031 Z M 53.464844 19.832031 "/>
<path style=" stroke:none;fill-rule:evenodd;fill:rgb(0%,61.914063%,87.889099%);fill-opacity:1;" d="M 13.753906 32.800781 C 13.753906 33.808594 13.621094 34.675781 13.355469 35.394531 C 13.089844 36.113281 12.710938 36.699219 12.21875 37.152344 C 11.722656 37.609375 11.121094 37.941406 10.414063 38.15625 C 9.707031 38.367188 8.863281 38.472656 7.886719 38.472656 L 5.253906 38.472656 C 5.0625 38.472656 4.90625 38.417969 4.777344 38.308594 C 4.652344 38.199219 4.585938 38.019531 4.585938 37.769531 L 4.585938 28.15625 C 4.585938 27.90625 4.652344 27.726563 4.777344 27.617188 C 4.90625 27.507813 5.0625 27.449219 5.253906 27.449219 L 8.082031 27.449219 C 9.066406 27.449219 9.902344 27.566406 10.585938 27.796875 C 11.269531 28.027344 11.847656 28.367188 12.316406 28.816406 C 12.785156 29.269531 13.144531 29.828125 13.386719 30.492188 C 13.632813 31.15625 13.753906 31.925781 13.753906 32.800781 Z M 11.433594 32.875 C 11.433594 32.351563 11.375 31.871094 11.25 31.421875 C 11.128906 30.972656 10.929688 30.582031 10.660156 30.253906 C 10.390625 29.925781 10.046875 29.667969 9.621094 29.484375 C 9.199219 29.296875 8.644531 29.203125 7.953125 29.203125 L 6.820313 29.203125 L 6.820313 36.703125 L 7.988281 36.703125 C 8.601563 36.703125 9.121094 36.621094 9.539063 36.464844 C 9.960938 36.304688 10.3125 36.0625 10.59375 35.742188 C 10.875 35.425781 11.085938 35.023438 11.226563 34.546875 C 11.363281 34.070313 11.433594 33.515625 11.433594 32.875 Z M 11.433594 32.875 "/>
<path style=" stroke:none;fill-rule:evenodd;fill:rgb(0%,61.914063%,87.889099%);fill-opacity:1;" d="M 18.0625 38.183594 C 18.0625 38.242188 18.046875 38.292969 18.007813 38.335938 C 17.972656 38.375 17.910156 38.414063 17.824219 38.441406 C 17.734375 38.46875 17.621094 38.488281 17.476563 38.503906 C 17.328125 38.519531 17.148438 38.527344 16.921875 38.527344 C 16.699219 38.527344 16.515625 38.519531 16.371094 38.503906 C 16.226563 38.488281 16.109375 38.46875 16.023438 38.441406 C 15.933594 38.414063 15.875 38.375 15.839844 38.335938 C 15.800781 38.292969 15.785156 38.242188 15.785156 38.183594 L 15.785156 30.601563 C 15.785156 30.542969 15.800781 30.496094 15.839844 30.453125 C 15.875 30.410156 15.933594 30.375 16.023438 30.34375 C 16.109375 30.3125 16.226563 30.289063 16.371094 30.269531 C 16.515625 30.253906 16.699219 30.246094 16.921875 30.246094 C 17.148438 30.246094 17.328125 30.253906 17.476563 30.269531 C 17.621094 30.289063 17.734375 30.3125 17.824219 30.34375 C 17.910156 30.375 17.972656 30.410156 18.007813 30.453125 C 18.046875 30.496094 18.0625 30.542969 18.0625 30.601563 Z M 18.234375 28.011719 C 18.234375 28.445313 18.140625 28.742188 17.953125 28.90625 C 17.769531 29.074219 17.417969 29.15625 16.914063 29.15625 C 16.402344 29.15625 16.058594 29.078125 15.878906 28.917969 C 15.699219 28.757813 15.609375 28.472656 15.609375 28.054688 C 15.609375 27.625 15.703125 27.324219 15.886719 27.15625 C 16.070313 26.988281 16.417969 26.902344 16.929688 26.902344 C 17.4375 26.902344 17.78125 26.984375 17.960938 27.148438 C 18.144531 27.3125 18.234375 27.597656 18.234375 28.011719 Z M 18.234375 28.011719 "/>
<path style=" stroke:none;fill-rule:evenodd;fill:rgb(0%,61.914063%,87.889099%);fill-opacity:1;" d="M 27.761719 31.113281 C 27.761719 31.386719 27.730469 31.589844 27.660156 31.71875 C 27.597656 31.851563 27.515625 31.914063 27.417969 31.914063 L 26.46875 31.914063 C 26.601563 32.050781 26.695313 32.207031 26.753906 32.378906 C 26.8125 32.550781 26.839844 32.730469 26.839844 32.921875 C 26.839844 33.363281 26.761719 33.753906 26.605469 34.101563 C 26.449219 34.445313 26.222656 34.730469 25.929688 34.96875 C 25.640625 35.203125 25.285156 35.382813 24.875 35.503906 C 24.460938 35.628906 24.003906 35.6875 23.496094 35.6875 C 23.238281 35.6875 22.988281 35.660156 22.753906 35.597656 C 22.519531 35.539063 22.339844 35.46875 22.214844 35.390625 C 22.140625 35.464844 22.074219 35.550781 22.019531 35.652344 C 21.960938 35.753906 21.933594 35.867188 21.933594 35.992188 C 21.933594 36.160156 22.007813 36.292969 22.164063 36.402344 C 22.3125 36.503906 22.53125 36.5625 22.808594 36.574219 L 24.769531 36.640625 C 25.226563 36.660156 25.636719 36.722656 25.996094 36.824219 C 26.351563 36.929688 26.65625 37.078125 26.898438 37.269531 C 27.144531 37.460938 27.328125 37.6875 27.457031 37.953125 C 27.585938 38.222656 27.652344 38.527344 27.652344 38.867188 C 27.652344 39.242188 27.566406 39.59375 27.390625 39.929688 C 27.21875 40.257813 26.953125 40.546875 26.605469 40.792969 C 26.253906 41.035156 25.816406 41.226563 25.289063 41.371094 C 24.761719 41.511719 24.148438 41.582031 23.441406 41.582031 C 22.753906 41.582031 22.167969 41.53125 21.683594 41.429688 C 21.199219 41.328125 20.800781 41.1875 20.492188 41.003906 C 20.179688 40.824219 19.953125 40.605469 19.8125 40.351563 C 19.671875 40.101563 19.597656 39.824219 19.597656 39.519531 C 19.597656 39.335938 19.625 39.15625 19.675781 38.984375 C 19.730469 38.816406 19.804688 38.652344 19.902344 38.496094 C 20 38.339844 20.125 38.191406 20.269531 38.050781 C 20.414063 37.90625 20.578125 37.769531 20.765625 37.640625 C 20.507813 37.507813 20.304688 37.332031 20.164063 37.109375 C 20.023438 36.882813 19.953125 36.636719 19.953125 36.367188 C 19.953125 36.035156 20.035156 35.730469 20.195313 35.453125 C 20.359375 35.179688 20.570313 34.929688 20.832031 34.707031 C 20.617188 34.511719 20.449219 34.273438 20.320313 33.992188 C 20.195313 33.714844 20.132813 33.367188 20.132813 32.957031 C 20.132813 32.511719 20.21875 32.113281 20.382813 31.765625 C 20.546875 31.417969 20.777344 31.121094 21.074219 30.878906 C 21.367188 30.636719 21.722656 30.453125 22.128906 30.328125 C 22.539063 30.199219 22.992188 30.136719 23.488281 30.136719 C 23.742188 30.136719 23.984375 30.148438 24.214844 30.175781 C 24.445313 30.203125 24.664063 30.246094 24.859375 30.292969 L 27.417969 30.292969 C 27.519531 30.292969 27.601563 30.359375 27.667969 30.484375 C 27.730469 30.609375 27.761719 30.816406 27.761719 31.113281 Z M 24.839844 32.910156 C 24.839844 32.5 24.722656 32.183594 24.480469 31.957031 C 24.238281 31.730469 23.902344 31.617188 23.460938 31.617188 C 23.238281 31.617188 23.039063 31.652344 22.875 31.722656 C 22.703125 31.796875 22.566406 31.890625 22.449219 32.011719 C 22.339844 32.136719 22.257813 32.277344 22.203125 32.4375 C 22.148438 32.601563 22.121094 32.769531 22.121094 32.945313 C 22.121094 33.332031 22.242188 33.636719 22.484375 33.863281 C 22.726563 34.085938 23.058594 34.195313 23.488281 34.195313 C 23.714844 34.195313 23.914063 34.164063 24.082031 34.09375 C 24.25 34.027344 24.390625 33.933594 24.5 33.8125 C 24.617188 33.695313 24.699219 33.558594 24.753906 33.398438 C 24.8125 33.246094 24.839844 33.082031 24.839844 32.910156 Z M 25.375 38.976563 C 25.375 38.722656 25.265625 38.527344 25.050781 38.390625 C 24.832031 38.253906 24.535156 38.179688 24.15625 38.167969 L 22.535156 38.125 C 22.378906 38.234375 22.257813 38.335938 22.164063 38.4375 C 22.066406 38.535156 21.992188 38.632813 21.933594 38.722656 C 21.878906 38.8125 21.84375 38.898438 21.824219 38.984375 C 21.804688 39.070313 21.796875 39.15625 21.796875 39.25 C 21.796875 39.53125 21.949219 39.746094 22.253906 39.894531 C 22.558594 40.042969 22.988281 40.117188 23.539063 40.117188 C 23.886719 40.117188 24.175781 40.085938 24.410156 40.019531 C 24.644531 39.953125 24.832031 39.867188 24.976563 39.757813 C 25.121094 39.652344 25.222656 39.53125 25.285156 39.398438 C 25.34375 39.265625 25.375 39.125 25.375 38.976563 Z M 25.375 38.976563 "/>
<path style=" stroke:none;fill-rule:evenodd;fill:rgb(0%,61.914063%,87.889099%);fill-opacity:1;" d="M 31.46875 38.183594 C 31.46875 38.242188 31.453125 38.292969 31.414063 38.335938 C 31.378906 38.375 31.316406 38.414063 31.230469 38.441406 C 31.140625 38.46875 31.027344 38.488281 30.882813 38.503906 C 30.734375 38.519531 30.554688 38.527344 30.328125 38.527344 C 30.105469 38.527344 29.921875 38.519531 29.78125 38.503906 C 29.632813 38.488281 29.515625 38.46875 29.429688 38.441406 C 29.339844 38.414063 29.28125 38.375 29.246094 38.335938 C 29.207031 38.292969 29.191406 38.242188 29.191406 38.183594 L 29.191406 30.601563 C 29.191406 30.542969 29.207031 30.496094 29.246094 30.453125 C 29.28125 30.410156 29.339844 30.375 29.429688 30.34375 C 29.515625 30.3125 29.632813 30.289063 29.78125 30.269531 C 29.921875 30.253906 30.105469 30.246094 30.328125 30.246094 C 30.554688 30.246094 30.734375 30.253906 30.882813 30.269531 C 31.027344 30.289063 31.140625 30.3125 31.230469 30.34375 C 31.316406 30.375 31.378906 30.410156 31.414063 30.453125 C 31.453125 30.496094 31.46875 30.542969 31.46875 30.601563 Z M 31.640625 28.011719 C 31.640625 28.445313 31.546875 28.742188 31.359375 28.90625 C 31.175781 29.074219 30.824219 29.15625 30.320313 29.15625 C 29.808594 29.15625 29.464844 29.078125 29.285156 28.917969 C 29.105469 28.757813 29.015625 28.472656 29.015625 28.054688 C 29.015625 27.625 29.109375 27.324219 29.296875 27.15625 C 29.476563 26.988281 29.824219 26.902344 30.339844 26.902344 C 30.84375 26.902344 31.1875 26.984375 31.367188 27.148438 C 31.550781 27.3125 31.640625 27.597656 31.640625 28.011719 Z M 31.640625 28.011719 "/>
<path style=" stroke:none;fill-rule:evenodd;fill:rgb(0%,61.914063%,87.889099%);fill-opacity:1;" d="M 38.835938 37.4375 C 38.835938 37.6875 38.820313 37.875 38.789063 38.007813 C 38.753906 38.144531 38.710938 38.234375 38.65625 38.292969 C 38.601563 38.347656 38.523438 38.394531 38.417969 38.4375 C 38.3125 38.476563 38.1875 38.515625 38.046875 38.546875 C 37.90625 38.578125 37.75 38.601563 37.585938 38.621094 C 37.421875 38.636719 37.25 38.644531 37.085938 38.644531 C 36.632813 38.644531 36.238281 38.589844 35.910156 38.484375 C 35.578125 38.375 35.304688 38.210938 35.085938 37.984375 C 34.871094 37.757813 34.710938 37.476563 34.609375 37.136719 C 34.503906 36.796875 34.453125 36.390625 34.453125 35.925781 L 34.453125 32.035156 L 33.488281 32.035156 C 33.375 32.035156 33.285156 31.96875 33.226563 31.832031 C 33.164063 31.699219 33.132813 31.476563 33.132813 31.164063 C 33.132813 31 33.140625 30.863281 33.15625 30.75 C 33.171875 30.636719 33.195313 30.542969 33.226563 30.476563 C 33.253906 30.414063 33.292969 30.367188 33.335938 30.339844 C 33.382813 30.308594 33.433594 30.292969 33.496094 30.292969 L 34.453125 30.292969 L 34.453125 28.597656 C 34.453125 28.542969 34.46875 28.492188 34.503906 28.449219 C 34.535156 28.402344 34.597656 28.363281 34.683594 28.332031 C 34.769531 28.300781 34.886719 28.28125 35.035156 28.265625 C 35.183594 28.25 35.367188 28.242188 35.582031 28.242188 C 35.808594 28.242188 35.992188 28.25 36.140625 28.265625 C 36.285156 28.28125 36.402344 28.300781 36.484375 28.332031 C 36.574219 28.363281 36.632813 28.402344 36.667969 28.449219 C 36.707031 28.492188 36.722656 28.542969 36.722656 28.597656 L 36.722656 30.292969 L 38.476563 30.292969 C 38.535156 30.292969 38.585938 30.308594 38.632813 30.339844 C 38.679688 30.367188 38.71875 30.414063 38.746094 30.476563 C 38.777344 30.542969 38.800781 30.636719 38.816406 30.75 C 38.832031 30.863281 38.835938 31 38.835938 31.164063 C 38.835938 31.476563 38.804688 31.699219 38.746094 31.832031 C 38.6875 31.96875 38.597656 32.035156 38.484375 32.035156 L 36.722656 32.035156 L 36.722656 35.605469 C 36.722656 36.015625 36.792969 36.328125 36.929688 36.535156 C 37.070313 36.742188 37.316406 36.847656 37.671875 36.847656 C 37.792969 36.847656 37.898438 36.835938 37.996094 36.816406 C 38.09375 36.796875 38.179688 36.777344 38.253906 36.75 C 38.328125 36.722656 38.394531 36.699219 38.445313 36.679688 C 38.496094 36.660156 38.542969 36.652344 38.585938 36.652344 C 38.621094 36.652344 38.65625 36.660156 38.6875 36.679688 C 38.71875 36.699219 38.746094 36.742188 38.765625 36.800781 C 38.78125 36.859375 38.800781 36.941406 38.816406 37.042969 C 38.832031 37.144531 38.835938 37.277344 38.835938 37.4375 Z M 38.835938 37.4375 "/>
<path style=" stroke:none;fill-rule:evenodd;fill:rgb(0%,61.914063%,87.889099%);fill-opacity:1;" d="M 47.171875 38.210938 C 47.171875 38.292969 47.140625 38.351563 47.078125 38.398438 C 47.019531 38.441406 46.921875 38.472656 46.792969 38.496094 C 46.664063 38.515625 46.472656 38.527344 46.21875 38.527344 C 45.949219 38.527344 45.75 38.515625 45.628906 38.496094 C 45.503906 38.472656 45.417969 38.441406 45.367188 38.398438 C 45.316406 38.351563 45.289063 38.292969 45.289063 38.210938 L 45.289063 37.605469 C 44.957031 37.941406 44.578125 38.199219 44.15625 38.390625 C 43.730469 38.574219 43.257813 38.667969 42.738281 38.667969 C 42.3125 38.667969 41.917969 38.617188 41.5625 38.511719 C 41.203125 38.40625 40.890625 38.25 40.628906 38.042969 C 40.367188 37.835938 40.164063 37.578125 40.019531 37.273438 C 39.875 36.964844 39.804688 36.609375 39.804688 36.199219 C 39.804688 35.753906 39.894531 35.371094 40.078125 35.046875 C 40.261719 34.71875 40.539063 34.449219 40.902344 34.234375 C 41.265625 34.023438 41.71875 33.867188 42.261719 33.765625 C 42.804688 33.660156 43.433594 33.609375 44.148438 33.609375 L 44.9375 33.609375 L 44.9375 33.148438 C 44.9375 32.910156 44.914063 32.703125 44.859375 32.523438 C 44.808594 32.34375 44.722656 32.195313 44.605469 32.078125 C 44.488281 31.957031 44.332031 31.871094 44.136719 31.8125 C 43.941406 31.753906 43.699219 31.726563 43.410156 31.726563 C 43.03125 31.726563 42.691406 31.765625 42.390625 31.847656 C 42.09375 31.925781 41.832031 32.011719 41.601563 32.113281 C 41.375 32.207031 41.183594 32.296875 41.027344 32.375 C 40.875 32.457031 40.75 32.492188 40.652344 32.492188 C 40.585938 32.492188 40.527344 32.476563 40.476563 32.433594 C 40.425781 32.394531 40.382813 32.339844 40.347656 32.261719 C 40.320313 32.191406 40.289063 32.101563 40.273438 31.992188 C 40.253906 31.882813 40.246094 31.761719 40.246094 31.632813 C 40.246094 31.457031 40.257813 31.316406 40.289063 31.214844 C 40.320313 31.113281 40.378906 31.023438 40.464844 30.941406 C 40.546875 30.855469 40.695313 30.765625 40.90625 30.667969 C 41.117188 30.566406 41.363281 30.476563 41.648438 30.390625 C 41.929688 30.304688 42.242188 30.238281 42.574219 30.179688 C 42.90625 30.125 43.253906 30.101563 43.605469 30.101563 C 44.238281 30.101563 44.78125 30.15625 45.230469 30.273438 C 45.679688 30.390625 46.046875 30.570313 46.335938 30.8125 C 46.628906 31.054688 46.835938 31.363281 46.96875 31.746094 C 47.101563 32.125 47.171875 32.578125 47.171875 33.097656 Z M 44.9375 34.957031 L 44.070313 34.957031 C 43.703125 34.957031 43.386719 34.980469 43.128906 35.03125 C 42.871094 35.082031 42.660156 35.160156 42.496094 35.261719 C 42.332031 35.367188 42.214844 35.488281 42.136719 35.632813 C 42.066406 35.777344 42.027344 35.945313 42.027344 36.128906 C 42.027344 36.449219 42.132813 36.699219 42.347656 36.882813 C 42.5625 37.0625 42.855469 37.152344 43.238281 37.152344 C 43.558594 37.152344 43.851563 37.078125 44.121094 36.925781 C 44.386719 36.769531 44.660156 36.546875 44.9375 36.25 Z M 44.9375 34.957031 "/>
<path style=" stroke:none;fill-rule:evenodd;fill:rgb(0%,61.914063%,87.889099%);fill-opacity:1;" d="M 51.714844 38.183594 C 51.714844 38.242188 51.699219 38.292969 51.664063 38.335938 C 51.625 38.375 51.5625 38.414063 51.476563 38.441406 C 51.386719 38.46875 51.273438 38.488281 51.128906 38.503906 C 50.984375 38.519531 50.800781 38.527344 50.578125 38.527344 C 50.355469 38.527344 50.167969 38.519531 50.027344 38.503906 C 49.882813 38.488281 49.765625 38.46875 49.679688 38.441406 C 49.589844 38.414063 49.527344 38.375 49.492188 38.335938 C 49.457031 38.292969 49.4375 38.242188 49.4375 38.183594 L 49.4375 26.984375 C 49.4375 26.925781 49.457031 26.875 49.492188 26.828125 C 49.527344 26.78125 49.589844 26.746094 49.679688 26.714844 C 49.765625 26.683594 49.882813 26.660156 50.027344 26.644531 C 50.167969 26.625 50.355469 26.617188 50.578125 26.617188 C 50.800781 26.617188 50.984375 26.625 51.128906 26.644531 C 51.273438 26.660156 51.386719 26.683594 51.476563 26.714844 C 51.5625 26.746094 51.625 26.78125 51.664063 26.828125 C 51.699219 26.875 51.714844 26.925781 51.714844 26.984375 Z M 51.714844 38.183594 "/>
<g clip-path="url(#clip1)" clip-rule="nonzero">
<path style=" stroke:none;fill-rule:evenodd;fill:rgb(10.594177%,9.812927%,9.423828%);fill-opacity:1;" d="M 4.695313 50.964844 C 4.695313 50.992188 4.691406 51.019531 4.679688 51.042969 C 4.671875 51.066406 4.648438 51.082031 4.609375 51.097656 C 4.574219 51.113281 4.523438 51.125 4.457031 51.132813 C 4.394531 51.140625 4.304688 51.144531 4.199219 51.144531 C 4.105469 51.144531 4.027344 51.140625 3.96875 51.132813 C 3.910156 51.125 3.859375 51.109375 3.828125 51.09375 C 3.789063 51.078125 3.761719 51.054688 3.742188 51.023438 C 3.71875 50.992188 3.703125 50.957031 3.6875 50.910156 L 3.046875 49.191406 C 2.96875 48.996094 2.890625 48.816406 2.808594 48.652344 C 2.730469 48.488281 2.632813 48.347656 2.519531 48.226563 C 2.410156 48.109375 2.277344 48.019531 2.125 47.953125 C 1.972656 47.886719 1.792969 47.855469 1.578125 47.855469 L 0.957031 47.855469 L 0.957031 50.964844 C 0.957031 50.992188 0.949219 51.019531 0.933594 51.042969 C 0.917969 51.066406 0.890625 51.082031 0.855469 51.09375 C 0.820313 51.109375 0.777344 51.117188 0.714844 51.128906 C 0.65625 51.136719 0.582031 51.144531 0.492188 51.144531 C 0.402344 51.144531 0.328125 51.136719 0.265625 51.128906 C 0.207031 51.117188 0.160156 51.109375 0.125 51.09375 C 0.0859375 51.082031 0.0585938 51.066406 0.046875 51.042969 C 0.03125 51.019531 0.0234375 50.992188 0.0234375 50.964844 L 0.0234375 44.203125 C 0.0234375 44.058594 0.0625 43.957031 0.136719 43.894531 C 0.210938 43.835938 0.289063 43.808594 0.371094 43.808594 L 1.859375 43.808594 C 2.039063 43.808594 2.183594 43.8125 2.300781 43.820313 C 2.417969 43.832031 2.523438 43.84375 2.617188 43.851563 C 2.890625 43.902344 3.128906 43.980469 3.335938 44.085938 C 3.542969 44.191406 3.71875 44.324219 3.859375 44.488281 C 3.996094 44.648438 4.101563 44.832031 4.175781 45.042969 C 4.246094 45.25 4.28125 45.480469 4.28125 45.734375 C 4.28125 45.976563 4.25 46.195313 4.183594 46.390625 C 4.121094 46.582031 4.03125 46.753906 3.910156 46.902344 C 3.792969 47.050781 3.652344 47.179688 3.484375 47.289063 C 3.316406 47.398438 3.132813 47.492188 2.925781 47.566406 C 3.042969 47.617188 3.144531 47.683594 3.242188 47.765625 C 3.335938 47.847656 3.421875 47.941406 3.503906 48.058594 C 3.585938 48.171875 3.660156 48.300781 3.734375 48.445313 C 3.804688 48.59375 3.878906 48.757813 3.949219 48.941406 L 4.578125 50.550781 C 4.628906 50.683594 4.660156 50.78125 4.675781 50.835938 C 4.6875 50.890625 4.695313 50.933594 4.695313 50.964844 Z M 3.292969 45.835938 C 3.292969 45.546875 3.234375 45.308594 3.109375 45.109375 C 2.988281 44.910156 2.78125 44.769531 2.492188 44.683594 C 2.402344 44.65625 2.300781 44.636719 2.1875 44.628906 C 2.074219 44.617188 1.925781 44.609375 1.742188 44.609375 L 0.957031 44.609375 L 0.957031 47.070313 L 1.867188 47.070313 C 2.113281 47.070313 2.324219 47.039063 2.5 46.976563 C 2.679688 46.914063 2.828125 46.828125 2.949219 46.714844 C 3.066406 46.605469 3.15625 46.476563 3.210938 46.324219 C 3.265625 46.171875 3.292969 46.011719 3.292969 45.835938 Z M 9.90625 48.210938 C 9.90625 48.355469 9.871094 48.460938 9.800781 48.523438 C 9.730469 48.585938 9.652344 48.617188 9.558594 48.617188 L 6.367188 48.617188 C 6.367188 48.898438 6.394531 49.152344 6.445313 49.378906 C 6.5 49.601563 6.589844 49.796875 6.71875 49.957031 C 6.84375 50.121094 7.007813 50.246094 7.210938 50.332031 C 7.414063 50.417969 7.660156 50.460938 7.953125 50.460938 C 8.183594 50.460938 8.390625 50.441406 8.570313 50.402344 C 8.75 50.363281 8.90625 50.316406 9.035156 50.269531 C 9.167969 50.21875 9.277344 50.175781 9.363281 50.136719 C 9.445313 50.097656 9.511719 50.078125 9.554688 50.078125 C 9.578125 50.078125 9.601563 50.082031 9.621094 50.097656 C 9.640625 50.109375 9.65625 50.128906 9.667969 50.15625 C 9.679688 50.183594 9.6875 50.21875 9.691406 50.265625 C 9.695313 50.3125 9.699219 50.371094 9.699219 50.4375 C 9.699219 50.488281 9.699219 50.53125 9.695313 50.5625 C 9.691406 50.601563 9.6875 50.632813 9.683594 50.660156 C 9.675781 50.6875 9.667969 50.714844 9.652344 50.738281 C 9.640625 50.757813 9.625 50.78125 9.605469 50.800781 C 9.585938 50.824219 9.527344 50.855469 9.429688 50.902344 C 9.332031 50.949219 9.207031 50.996094 9.050781 51.042969 C 8.894531 51.085938 8.714844 51.125 8.511719 51.164063 C 8.308594 51.199219 8.089844 51.21875 7.859375 51.21875 C 7.457031 51.21875 7.109375 51.15625 6.808594 51.042969 C 6.503906 50.925781 6.253906 50.75 6.046875 50.523438 C 5.839844 50.292969 5.683594 50.003906 5.578125 49.660156 C 5.476563 49.3125 5.421875 48.910156 5.421875 48.453125 C 5.421875 48.015625 5.476563 47.625 5.585938 47.273438 C 5.695313 46.929688 5.847656 46.632813 6.054688 46.390625 C 6.257813 46.148438 6.503906 45.960938 6.792969 45.832031 C 7.082031 45.703125 7.40625 45.636719 7.761719 45.636719 C 8.144531 45.636719 8.46875 45.699219 8.738281 45.828125 C 9.007813 45.957031 9.230469 46.128906 9.402344 46.34375 C 9.578125 46.558594 9.703125 46.816406 9.785156 47.105469 C 9.863281 47.398438 9.90625 47.707031 9.90625 48.039063 Z M 9.007813 47.933594 C 9.019531 47.445313 8.914063 47.058594 8.695313 46.78125 C 8.476563 46.503906 8.152344 46.363281 7.726563 46.363281 C 7.503906 46.363281 7.3125 46.410156 7.144531 46.496094 C 6.976563 46.578125 6.839844 46.695313 6.730469 46.839844 C 6.617188 46.980469 6.53125 47.148438 6.46875 47.335938 C 6.40625 47.527344 6.371094 47.726563 6.367188 47.933594 Z M 13.738281 50.59375 C 13.738281 50.703125 13.730469 50.792969 13.71875 50.855469 C 13.703125 50.917969 13.679688 50.964844 13.652344 50.996094 C 13.625 51.027344 13.578125 51.054688 13.523438 51.082031 C 13.464844 51.105469 13.398438 51.128906 13.324219 51.144531 C 13.25 51.164063 13.171875 51.175781 13.089844 51.1875 C 13.007813 51.199219 12.921875 51.207031 12.839844 51.207031 C 12.585938 51.207031 12.371094 51.171875 12.191406 51.101563 C 12.011719 51.03125 11.863281 50.925781 11.746094 50.785156 C 11.632813 50.644531 11.546875 50.464844 11.496094 50.25 C 11.441406 50.03125 11.417969 49.777344 11.417969 49.484375 L 11.417969 46.515625 L 10.734375 46.515625 C 10.679688 46.515625 10.636719 46.488281 10.605469 46.425781 C 10.570313 46.367188 10.554688 46.269531 10.554688 46.132813 C 10.554688 46.0625 10.558594 46.003906 10.570313 45.953125 C 10.578125 45.902344 10.589844 45.863281 10.605469 45.832031 C 10.617188 45.800781 10.636719 45.777344 10.660156 45.761719 C 10.6875 45.75 10.710938 45.742188 10.738281 45.742188 L 11.417969 45.742188 L 11.417969 44.535156 C 11.417969 44.507813 11.421875 44.488281 11.4375 44.464844 C 11.449219 44.441406 11.472656 44.421875 11.507813 44.402344 C 11.539063 44.386719 11.585938 44.375 11.644531 44.367188 C 11.703125 44.359375 11.773438 44.355469 11.859375 44.355469 C 11.949219 44.355469 12.023438 44.359375 12.082031 44.367188 C 12.140625 44.375 12.1875 44.386719 12.21875 44.402344 C 12.25 44.421875 12.273438 44.441406 12.289063 44.464844 C 12.300781 44.488281 12.308594 44.507813 12.308594 44.535156 L 12.308594 45.742188 L 13.558594 45.742188 C 13.589844 45.742188 13.613281 45.75 13.636719 45.761719 C 13.65625 45.777344 13.675781 45.800781 13.691406 45.832031 C 13.707031 45.863281 13.722656 45.902344 13.726563 45.953125 C 13.734375 46.003906 13.738281 46.0625 13.738281 46.132813 C 13.738281 46.269531 13.722656 46.367188 13.691406 46.425781 C 13.65625 46.488281 13.613281 46.515625 13.558594 46.515625 L 12.308594 46.515625 L 12.308594 49.347656 C 12.308594 49.699219 12.359375 49.964844 12.457031 50.144531 C 12.558594 50.320313 12.734375 50.410156 12.992188 50.410156 C 13.074219 50.410156 13.148438 50.398438 13.214844 50.386719 C 13.277344 50.367188 13.335938 50.347656 13.386719 50.332031 C 13.4375 50.3125 13.480469 50.292969 13.515625 50.277344 C 13.554688 50.261719 13.585938 50.253906 13.613281 50.253906 C 13.632813 50.253906 13.648438 50.257813 13.664063 50.265625 C 13.683594 50.277344 13.695313 50.292969 13.703125 50.320313 C 13.710938 50.347656 13.722656 50.382813 13.726563 50.425781 C 13.734375 50.472656 13.738281 50.527344 13.738281 50.59375 Z M 18.457031 50.972656 C 18.457031 51.019531 18.441406 51.054688 18.410156 51.074219 C 18.382813 51.097656 18.34375 51.113281 18.292969 51.125 C 18.242188 51.136719 18.167969 51.144531 18.070313 51.144531 C 17.976563 51.144531 17.902344 51.136719 17.84375 51.125 C 17.789063 51.113281 17.75 51.097656 17.722656 51.074219 C 17.699219 51.054688 17.6875 51.019531 17.6875 50.972656 L 17.6875 50.464844 C 17.472656 50.703125 17.234375 50.886719 16.972656 51.019531 C 16.714844 51.148438 16.4375 51.21875 16.144531 51.21875 C 15.886719 51.21875 15.652344 51.183594 15.445313 51.109375 C 15.242188 51.042969 15.0625 50.941406 14.917969 50.8125 C 14.769531 50.679688 14.65625 50.515625 14.574219 50.324219 C 14.496094 50.132813 14.453125 49.914063 14.453125 49.671875 C 14.453125 49.382813 14.511719 49.136719 14.621094 48.925781 C 14.734375 48.714844 14.894531 48.539063 15.101563 48.402344 C 15.3125 48.261719 15.570313 48.15625 15.871094 48.085938 C 16.175781 48.019531 16.515625 47.984375 16.894531 47.984375 L 17.566406 47.984375 L 17.566406 47.589844 C 17.566406 47.390625 17.546875 47.21875 17.507813 47.070313 C 17.464844 46.917969 17.402344 46.792969 17.316406 46.695313 C 17.226563 46.59375 17.113281 46.519531 16.972656 46.46875 C 16.832031 46.417969 16.65625 46.394531 16.453125 46.394531 C 16.230469 46.394531 16.035156 46.417969 15.859375 46.472656 C 15.683594 46.53125 15.53125 46.589844 15.398438 46.65625 C 15.265625 46.71875 15.15625 46.78125 15.066406 46.835938 C 14.980469 46.890625 14.914063 46.917969 14.871094 46.917969 C 14.84375 46.917969 14.816406 46.910156 14.792969 46.894531 C 14.773438 46.878906 14.753906 46.855469 14.738281 46.828125 C 14.722656 46.796875 14.710938 46.757813 14.703125 46.710938 C 14.695313 46.664063 14.691406 46.613281 14.691406 46.558594 C 14.691406 46.460938 14.699219 46.386719 14.710938 46.332031 C 14.722656 46.277344 14.753906 46.226563 14.804688 46.175781 C 14.851563 46.128906 14.933594 46.070313 15.054688 46.007813 C 15.171875 45.941406 15.308594 45.878906 15.464844 45.824219 C 15.621094 45.769531 15.789063 45.726563 15.976563 45.691406 C 16.160156 45.652344 16.34375 45.636719 16.535156 45.636719 C 16.882813 45.636719 17.179688 45.679688 17.425781 45.761719 C 17.671875 45.84375 17.871094 45.964844 18.019531 46.125 C 18.171875 46.285156 18.285156 46.484375 18.351563 46.71875 C 18.417969 46.957031 18.457031 47.234375 18.457031 47.546875 Z M 17.566406 48.65625 L 16.804688 48.65625 C 16.558594 48.65625 16.34375 48.675781 16.164063 48.71875 C 15.984375 48.761719 15.835938 48.828125 15.714844 48.910156 C 15.597656 48.996094 15.507813 49.097656 15.453125 49.214844 C 15.398438 49.335938 15.371094 49.46875 15.371094 49.625 C 15.371094 49.886719 15.449219 50.097656 15.609375 50.253906 C 15.769531 50.410156 15.996094 50.488281 16.285156 50.488281 C 16.519531 50.488281 16.734375 50.425781 16.9375 50.300781 C 17.136719 50.179688 17.347656 49.988281 17.566406 49.734375 Z M 20.988281 50.96875 C 20.988281 50.996094 20.980469 51.023438 20.964844 51.042969 C 20.953125 51.066406 20.925781 51.082031 20.894531 51.097656 C 20.863281 51.113281 20.820313 51.125 20.761719 51.132813 C 20.703125 51.140625 20.628906 51.144531 20.539063 51.144531 C 20.453125 51.144531 20.382813 51.140625 20.320313 51.132813 C 20.265625 51.125 20.21875 51.113281 20.183594 51.097656 C 20.148438 51.082031 20.125 51.066406 20.113281 51.042969 C 20.101563 51.023438 20.09375 50.996094 20.09375 50.96875 L 20.09375 45.890625 C 20.09375 45.863281 20.101563 45.839844 20.113281 45.816406 C 20.125 45.792969 20.148438 45.773438 20.183594 45.761719 C 20.21875 45.746094 20.265625 45.734375 20.320313 45.726563 C 20.382813 45.71875 20.453125 45.714844 20.539063 45.714844 C 20.628906 45.714844 20.703125 45.71875 20.761719 45.726563 C 20.820313 45.734375 20.863281 45.746094 20.894531 45.761719 C 20.925781 45.773438 20.953125 45.792969 20.964844 45.816406 C 20.980469 45.839844 20.988281 45.863281 20.988281 45.890625 Z M 21.089844 44.175781 C 21.089844 44.394531 21.050781 44.542969 20.972656 44.621094 C 20.890625 44.699219 20.746094 44.738281 20.535156 44.738281 C 20.324219 44.738281 20.179688 44.699219 20.105469 44.625 C 20.027344 44.546875 19.988281 44.402344 19.988281 44.1875 C 19.988281 43.96875 20.027344 43.820313 20.105469 43.742188 C 20.183594 43.664063 20.332031 43.621094 20.542969 43.621094 C 20.753906 43.621094 20.894531 43.660156 20.972656 43.738281 C 21.050781 43.816406 21.089844 43.960938 21.089844 44.175781 Z M 23.53125 50.96875 C 23.53125 50.996094 23.527344 51.023438 23.511719 51.042969 C 23.496094 51.066406 23.472656 51.082031 23.441406 51.097656 C 23.40625 51.113281 23.363281 51.125 23.304688 51.132813 C 23.246094 51.140625 23.171875 51.144531 23.082031 51.144531 C 22.996094 51.144531 22.925781 51.140625 22.867188 51.132813 C 22.808594 51.125 22.761719 51.113281 22.730469 51.097656 C 22.695313 51.082031 22.671875 51.066406 22.660156 51.042969 C 22.644531 51.023438 22.640625 50.996094 22.640625 50.96875 L 22.640625 43.429688 C 22.640625 43.398438 22.644531 43.375 22.660156 43.351563 C 22.671875 43.328125 22.695313 43.308594 22.730469 43.292969 C 22.761719 43.28125 22.808594 43.269531 22.867188 43.261719 C 22.925781 43.253906 22.996094 43.25 23.082031 43.25 C 23.171875 43.25 23.246094 43.253906 23.304688 43.261719 C 23.363281 43.269531 23.40625 43.28125 23.441406 43.292969 C 23.472656 43.308594 23.496094 43.328125 23.511719 43.351563 C 23.527344 43.375 23.53125 43.398438 23.53125 43.429688 Z M 31.425781 50.683594 C 31.425781 50.761719 31.421875 50.824219 31.414063 50.875 C 31.40625 50.925781 31.394531 50.96875 31.378906 51.003906 C 31.363281 51.039063 31.34375 51.066406 31.320313 51.085938 C 31.296875 51.101563 31.269531 51.109375 31.234375 51.109375 L 28.136719 51.109375 C 28.054688 51.109375 27.976563 51.082031 27.902344 51.023438 C 27.828125 50.964844 27.792969 50.859375 27.792969 50.714844 L 27.792969 43.957031 C 27.792969 43.925781 27.800781 43.898438 27.816406 43.875 C 27.828125 43.851563 27.851563 43.835938 27.890625 43.820313 C 27.925781 43.808594 27.976563 43.800781 28.035156 43.789063 C 28.097656 43.777344 28.171875 43.773438 28.257813 43.773438 C 28.347656 43.773438 28.421875 43.78125 28.480469 43.789063 C 28.542969 43.800781 28.589844 43.808594 28.625 43.820313 C 28.664063 43.835938 28.6875 43.851563 28.703125 43.875 C 28.714844 43.898438 28.722656 43.925781 28.722656 43.957031 L 28.722656 50.269531 L 31.234375 50.269531 C 31.269531 50.269531 31.296875 50.277344 31.320313 50.292969 C 31.34375 50.308594 31.363281 50.335938 31.378906 50.367188 C 31.394531 50.398438 31.40625 50.441406 31.414063 50.496094 C 31.421875 50.546875 31.425781 50.609375 31.425781 50.683594 Z M 33.242188 50.96875 C 33.242188 50.996094 33.238281 51.023438 33.222656 51.042969 C 33.207031 51.066406 33.183594 51.082031 33.152344 51.097656 C 33.117188 51.113281 33.074219 51.125 33.015625 51.132813 C 32.957031 51.140625 32.882813 51.144531 32.792969 51.144531 C 32.707031 51.144531 32.636719 51.140625 32.574219 51.132813 C 32.519531 51.125 32.472656 51.113281 32.441406 51.097656 C 32.40625 51.082031 32.378906 51.066406 32.371094 51.042969 C 32.355469 51.023438 32.347656 50.996094 32.347656 50.96875 L 32.347656 45.890625 C 32.347656 45.863281 32.355469 45.839844 32.371094 45.816406 C 32.378906 45.792969 32.40625 45.773438 32.441406 45.761719 C 32.472656 45.746094 32.519531 45.734375 32.574219 45.726563 C 32.636719 45.71875 32.707031 45.714844 32.792969 45.714844 C 32.882813 45.714844 32.957031 45.71875 33.015625 45.726563 C 33.074219 45.734375 33.117188 45.746094 33.152344 45.761719 C 33.183594 45.773438 33.207031 45.792969 33.222656 45.816406 C 33.234375 45.839844 33.242188 45.863281 33.242188 45.890625 Z M 33.34375 44.175781 C 33.34375 44.394531 33.304688 44.542969 33.226563 44.621094 C 33.148438 44.699219 33 44.738281 32.789063 44.738281 C 32.578125 44.738281 32.4375 44.699219 32.359375 44.625 C 32.28125 44.546875 32.242188 44.402344 32.242188 44.1875 C 32.242188 43.96875 32.28125 43.820313 32.359375 43.742188 C 32.441406 43.664063 32.585938 43.621094 32.796875 43.621094 C 33.007813 43.621094 33.152344 43.660156 33.226563 43.738281 C 33.304688 43.816406 33.34375 43.960938 33.34375 44.175781 Z M 42.121094 50.96875 C 42.121094 50.996094 42.113281 51.023438 42.101563 51.042969 C 42.085938 51.066406 42.0625 51.082031 42.03125 51.097656 C 41.996094 51.113281 41.953125 51.125 41.894531 51.132813 C 41.835938 51.140625 41.761719 51.144531 41.675781 51.144531 C 41.585938 51.144531 41.511719 51.140625 41.457031 51.132813 C 41.398438 51.125 41.351563 51.113281 41.316406 51.097656 C 41.28125 51.082031 41.257813 51.066406 41.246094 51.042969 C 41.230469 51.023438 41.222656 50.996094 41.222656 50.96875 L 41.222656 47.882813 C 41.222656 47.667969 41.203125 47.472656 41.167969 47.296875 C 41.132813 47.121094 41.074219 46.96875 40.996094 46.839844 C 40.914063 46.710938 40.8125 46.613281 40.691406 46.546875 C 40.570313 46.476563 40.425781 46.441406 40.257813 46.441406 C 40.050781 46.441406 39.84375 46.527344 39.640625 46.691406 C 39.433594 46.855469 39.203125 47.101563 38.953125 47.417969 L 38.953125 50.96875 C 38.953125 50.996094 38.949219 51.023438 38.933594 51.042969 C 38.917969 51.066406 38.894531 51.082031 38.859375 51.097656 C 38.824219 51.113281 38.78125 51.125 38.722656 51.132813 C 38.664063 51.140625 38.589844 51.144531 38.503906 51.144531 C 38.421875 51.144531 38.351563 51.140625 38.292969 51.132813 C 38.230469 51.125 38.183594 51.113281 38.148438 51.097656 C 38.117188 51.082031 38.09375 51.066406 38.078125 51.042969 C 38.066406 51.023438 38.0625 50.996094 38.0625 50.96875 L 38.0625 47.882813 C 38.0625 47.667969 38.039063 47.472656 38 47.296875 C 37.960938 47.121094 37.902344 46.96875 37.820313 46.839844 C 37.742188 46.710938 37.644531 46.613281 37.523438 46.546875 C 37.402344 46.476563 37.257813 46.441406 37.09375 46.441406 C 36.886719 46.441406 36.679688 46.527344 36.46875 46.691406 C 36.261719 46.855469 36.03125 47.101563 35.789063 47.417969 L 35.789063 50.96875 C 35.789063 50.996094 35.78125 51.023438 35.765625 51.042969 C 35.75 51.066406 35.726563 51.082031 35.695313 51.097656 C 35.664063 51.113281 35.617188 51.125 35.558594 51.132813 C 35.5 51.140625 35.425781 51.144531 35.335938 51.144531 C 35.253906 51.144531 35.179688 51.140625 35.121094 51.132813 C 35.0625 51.125 35.015625 51.113281 34.984375 51.097656 C 34.949219 51.082031 34.925781 51.066406 34.914063 51.042969 C 34.902344 51.023438 34.894531 50.996094 34.894531 50.96875 L 34.894531 45.890625 C 34.894531 45.859375 34.898438 45.835938 34.910156 45.8125 C 34.921875 45.792969 34.945313 45.773438 34.972656 45.757813 C 35.007813 45.738281 35.046875 45.730469 35.101563 45.726563 C 35.148438 45.71875 35.214844 45.714844 35.300781 45.714844 C 35.378906 45.714844 35.445313 45.71875 35.496094 45.726563 C 35.550781 45.730469 35.589844 45.738281 35.621094 45.757813 C 35.648438 45.773438 35.667969 45.792969 35.683594 45.8125 C 35.695313 45.835938 35.699219 45.859375 35.699219 45.890625 L 35.699219 46.5625 C 35.976563 46.242188 36.242188 46.007813 36.5 45.859375 C 36.757813 45.710938 37.019531 45.636719 37.28125 45.636719 C 37.484375 45.636719 37.664063 45.660156 37.824219 45.710938 C 37.988281 45.757813 38.125 45.828125 38.25 45.914063 C 38.371094 46.003906 38.476563 46.109375 38.566406 46.230469 C 38.648438 46.355469 38.722656 46.492188 38.78125 46.640625 C 38.945313 46.457031 39.097656 46.300781 39.242188 46.171875 C 39.390625 46.042969 39.53125 45.941406 39.667969 45.863281 C 39.800781 45.78125 39.933594 45.726563 40.0625 45.691406 C 40.1875 45.652344 40.320313 45.636719 40.449219 45.636719 C 40.761719 45.636719 41.027344 45.695313 41.238281 45.808594 C 41.449219 45.921875 41.625 46.078125 41.757813 46.269531 C 41.886719 46.460938 41.980469 46.6875 42.039063 46.941406 C 42.09375 47.199219 42.121094 47.472656 42.121094 47.757813 Z M 44.644531 50.96875 C 44.644531 50.996094 44.636719 51.023438 44.621094 51.042969 C 44.609375 51.066406 44.582031 51.082031 44.550781 51.097656 C 44.519531 51.113281 44.472656 51.125 44.417969 51.132813 C 44.359375 51.140625 44.285156 51.144531 44.195313 51.144531 C 44.109375 51.144531 44.035156 51.140625 43.976563 51.132813 C 43.921875 51.125 43.875 51.113281 43.839844 51.097656 C 43.804688 51.082031 43.78125 51.066406 43.769531 51.042969 C 43.757813 51.023438 43.75 50.996094 43.75 50.96875 L 43.75 45.890625 C 43.75 45.863281 43.757813 45.839844 43.769531 45.816406 C 43.78125 45.792969 43.804688 45.773438 43.839844 45.761719 C 43.875 45.746094 43.921875 45.734375 43.976563 45.726563 C 44.035156 45.71875 44.109375 45.714844 44.195313 45.714844 C 44.285156 45.714844 44.359375 45.71875 44.417969 45.726563 C 44.472656 45.734375 44.519531 45.746094 44.550781 45.761719 C 44.582031 45.773438 44.609375 45.792969 44.621094 45.816406 C 44.636719 45.839844 44.644531 45.863281 44.644531 45.890625 Z M 44.746094 44.175781 C 44.746094 44.394531 44.707031 44.542969 44.628906 44.621094 C 44.546875 44.699219 44.402344 44.738281 44.191406 44.738281 C 43.980469 44.738281 43.835938 44.699219 43.757813 44.625 C 43.679688 44.546875 43.644531 44.402344 43.644531 44.1875 C 43.644531 43.96875 43.679688 43.820313 43.761719 43.742188 C 43.839844 43.664063 43.988281 43.621094 44.199219 43.621094 C 44.410156 43.621094 44.550781 43.660156 44.628906 43.738281 C 44.707031 43.816406 44.746094 43.960938 44.746094 44.175781 Z M 48.828125 50.59375 C 48.828125 50.703125 48.820313 50.792969 48.808594 50.855469 C 48.792969 50.917969 48.769531 50.964844 48.742188 50.996094 C 48.714844 51.027344 48.667969 51.054688 48.613281 51.082031 C 48.554688 51.105469 48.488281 51.128906 48.414063 51.144531 C 48.339844 51.164063 48.261719 51.175781 48.179688 51.1875 C 48.097656 51.199219 48.011719 51.207031 47.929688 51.207031 C 47.675781 51.207031 47.460938 51.171875 47.28125 51.101563 C 47.101563 51.03125 46.953125 50.925781 46.835938 50.785156 C 46.722656 50.644531 46.636719 50.464844 46.585938 50.25 C 46.53125 50.03125 46.507813 49.777344 46.507813 49.484375 L 46.507813 46.515625 L 45.824219 46.515625 C 45.769531 46.515625 45.726563 46.488281 45.695313 46.425781 C 45.660156 46.367188 45.644531 46.269531 45.644531 46.132813 C 45.644531 46.0625 45.648438 46.003906 45.660156 45.953125 C 45.667969 45.902344 45.679688 45.863281 45.695313 45.832031 C 45.707031 45.800781 45.726563 45.777344 45.75 45.761719 C 45.777344 45.75 45.800781 45.742188 45.828125 45.742188 L 46.507813 45.742188 L 46.507813 44.535156 C 46.507813 44.507813 46.511719 44.488281 46.527344 44.464844 C 46.539063 44.441406 46.5625 44.421875 46.597656 44.402344 C 46.628906 44.386719 46.675781 44.375 46.734375 44.367188 C 46.792969 44.359375 46.863281 44.355469 46.949219 44.355469 C 47.039063 44.355469 47.113281 44.359375 47.171875 44.367188 C 47.230469 44.375 47.277344 44.386719 47.308594 44.402344 C 47.339844 44.421875 47.363281 44.441406 47.378906 44.464844 C 47.390625 44.488281 47.398438 44.507813 47.398438 44.535156 L 47.398438 45.742188 L 48.648438 45.742188 C 48.679688 45.742188 48.703125 45.75 48.726563 45.761719 C 48.746094 45.777344 48.765625 45.800781 48.78125 45.832031 C 48.796875 45.863281 48.8125 45.902344 48.816406 45.953125 C 48.824219 46.003906 48.828125 46.0625 48.828125 46.132813 C 48.828125 46.269531 48.8125 46.367188 48.78125 46.425781 C 48.746094 46.488281 48.703125 46.515625 48.648438 46.515625 L 47.398438 46.515625 L 47.398438 49.347656 C 47.398438 49.699219 47.449219 49.964844 47.546875 50.144531 C 47.648438 50.320313 47.824219 50.410156 48.082031 50.410156 C 48.164063 50.410156 48.238281 50.398438 48.304688 50.386719 C 48.367188 50.367188 48.425781 50.347656 48.476563 50.332031 C 48.527344 50.3125 48.570313 50.292969 48.605469 50.277344 C 48.644531 50.261719 48.675781 50.253906 48.703125 50.253906 C 48.722656 50.253906 48.738281 50.257813 48.753906 50.265625 C 48.773438 50.277344 48.785156 50.292969 48.792969 50.320313 C 48.800781 50.347656 48.8125 50.382813 48.816406 50.425781 C 48.824219 50.472656 48.828125 50.527344 48.828125 50.59375 Z M 54.046875 48.210938 C 54.046875 48.355469 54.011719 48.460938 53.941406 48.523438 C 53.871094 48.585938 53.792969 48.617188 53.703125 48.617188 L 50.507813 48.617188 C 50.507813 48.898438 50.535156 49.152344 50.589844 49.378906 C 50.640625 49.601563 50.734375 49.796875 50.859375 49.957031 C 50.984375 50.121094 51.152344 50.246094 51.351563 50.332031 C 51.554688 50.417969 51.800781 50.460938 52.09375 50.460938 C 52.324219 50.460938 52.53125 50.441406 52.710938 50.402344 C 52.890625 50.363281 53.046875 50.316406 53.179688 50.269531 C 53.308594 50.21875 53.417969 50.175781 53.503906 50.136719 C 53.589844 50.097656 53.652344 50.078125 53.695313 50.078125 C 53.71875 50.078125 53.746094 50.082031 53.761719 50.097656 C 53.785156 50.109375 53.796875 50.128906 53.808594 50.15625 C 53.820313 50.183594 53.828125 50.21875 53.835938 50.265625 C 53.839844 50.3125 53.84375 50.371094 53.84375 50.4375 C 53.84375 50.488281 53.839844 50.53125 53.835938 50.5625 C 53.832031 50.601563 53.832031 50.632813 53.824219 50.660156 C 53.820313 50.6875 53.808594 50.714844 53.796875 50.738281 C 53.785156 50.757813 53.765625 50.78125 53.75 50.800781 C 53.726563 50.824219 53.667969 50.855469 53.570313 50.902344 C 53.476563 50.949219 53.347656 50.996094 53.191406 51.042969 C 53.035156 51.085938 52.859375 51.125 52.65625 51.164063 C 52.453125 51.199219 52.234375 51.21875 52.003906 51.21875 C 51.601563 51.21875 51.25 51.15625 50.949219 51.042969 C 50.648438 50.925781 50.394531 50.75 50.1875 50.523438 C 49.980469 50.292969 49.828125 50.003906 49.722656 49.660156 C 49.617188 49.3125 49.566406 48.910156 49.566406 48.453125 C 49.566406 48.015625 49.621094 47.625 49.726563 47.273438 C 49.835938 46.929688 49.992188 46.632813 50.195313 46.390625 C 50.398438 46.148438 50.644531 45.960938 50.9375 45.832031 C 51.222656 45.703125 51.546875 45.636719 51.902344 45.636719 C 52.285156 45.636719 52.613281 45.699219 52.882813 45.828125 C 53.148438 45.957031 53.371094 46.128906 53.542969 46.34375 C 53.71875 46.558594 53.84375 46.816406 53.925781 47.105469 C 54.007813 47.398438 54.046875 47.707031 54.046875 48.039063 Z M 53.148438 47.933594 C 53.160156 47.445313 53.058594 47.058594 52.835938 46.78125 C 52.621094 46.503906 52.296875 46.363281 51.867188 46.363281 C 51.644531 46.363281 51.453125 46.410156 51.289063 46.496094 C 51.121094 46.578125 50.980469 46.695313 50.871094 46.839844 C 50.757813 46.980469 50.671875 47.148438 50.609375 47.335938 C 50.550781 47.527344 50.515625 47.726563 50.507813 47.933594 Z M 59.578125 50.96875 C 59.578125 50.996094 59.574219 51.023438 59.5625 51.046875 C 59.546875 51.070313 59.527344 51.089844 59.496094 51.101563 C 59.464844 51.113281 59.425781 51.125 59.375 51.132813 C 59.324219 51.140625 59.261719 51.144531 59.191406 51.144531 C 59.113281 51.144531 59.050781 51.140625 59 51.132813 C 58.949219 51.125 58.910156 51.113281 58.875 51.101563 C 58.84375 51.089844 58.820313 51.070313 58.804688 51.046875 C 58.789063 51.023438 58.785156 50.996094 58.785156 50.96875 L 58.785156 50.296875 C 58.527344 50.585938 58.261719 50.8125 57.984375 50.972656 C 57.710938 51.136719 57.40625 51.21875 57.078125 51.21875 C 56.722656 51.21875 56.417969 51.144531 56.164063 51 C 55.914063 50.855469 55.707031 50.660156 55.550781 50.414063 C 55.394531 50.164063 55.277344 49.875 55.207031 49.542969 C 55.132813 49.210938 55.097656 48.859375 55.097656 48.492188 C 55.097656 48.054688 55.144531 47.660156 55.230469 47.308594 C 55.324219 46.957031 55.457031 46.65625 55.632813 46.410156 C 55.808594 46.160156 56.03125 45.972656 56.292969 45.835938 C 56.554688 45.703125 56.855469 45.636719 57.199219 45.636719 C 57.484375 45.636719 57.742188 45.703125 57.980469 45.832031 C 58.214844 45.960938 58.449219 46.152344 58.683594 46.40625 L 58.683594 43.453125 C 58.683594 43.425781 58.6875 43.402344 58.699219 43.378906 C 58.714844 43.351563 58.738281 43.332031 58.773438 43.320313 C 58.808594 43.308594 58.855469 43.296875 58.910156 43.285156 C 58.964844 43.277344 59.039063 43.273438 59.125 43.273438 C 59.214844 43.273438 59.289063 43.277344 59.347656 43.285156 C 59.40625 43.296875 59.449219 43.308594 59.480469 43.320313 C 59.515625 43.332031 59.539063 43.351563 59.554688 43.378906 C 59.574219 43.402344 59.578125 43.425781 59.578125 43.453125 Z M 58.683594 47.394531 C 58.441406 47.085938 58.207031 46.847656 57.980469 46.683594 C 57.753906 46.519531 57.519531 46.4375 57.273438 46.4375 C 57.046875 46.4375 56.851563 46.496094 56.695313 46.605469 C 56.535156 46.71875 56.40625 46.867188 56.308594 47.054688 C 56.207031 47.238281 56.136719 47.445313 56.089844 47.679688 C 56.046875 47.914063 56.023438 48.148438 56.023438 48.390625 C 56.023438 48.644531 56.042969 48.894531 56.082031 49.140625 C 56.117188 49.382813 56.183594 49.601563 56.277344 49.792969 C 56.371094 49.984375 56.496094 50.132813 56.652344 50.25 C 56.804688 50.363281 57.003906 50.421875 57.234375 50.421875 C 57.355469 50.421875 57.46875 50.40625 57.582031 50.371094 C 57.691406 50.335938 57.800781 50.277344 57.917969 50.199219 C 58.035156 50.121094 58.15625 50.019531 58.28125 49.894531 C 58.40625 49.765625 58.542969 49.613281 58.683594 49.429688 Z M 58.683594 47.394531 "/>
</g>
</g>
</svg>
