<?xml version="1.0" encoding="UTF-8"?>
<svg xmlns="http://www.w3.org/2000/svg" xmlns:xlink="http://www.w3.org/1999/xlink" width="1440pt" height="720pt" viewBox="0 0 1440 720" version="1.1">
<g id="surface1">
<rect x="0" y="0" width="1440" height="720" style="fill:rgb(0%,0.784302%,0%);fill-opacity:1;stroke:none;"/>
<path style="fill:none;stroke-width:2;stroke-linecap:butt;stroke-linejoin:miter;stroke:rgb(0%,0%,0%);stroke-opacity:1;stroke-miterlimit:4;" d="M 0 0 L 14400 0 L 14400 7200 L 0 7200 Z M 0 0 " transform="matrix(0.1,0,0,-0.1,0,720)"/>
<path style=" stroke:none;fill-rule:evenodd;fill:rgb(100%,100%,100%);fill-opacity:1;" d="M 86.652344 247.136719 L 157.914063 247.105469 L 254.058594 389.023438 L 254.058594 255.851563 L 232.285156 255.851563 L 232.285156 247.105469 L 292.285156 247.105469 L 292.285156 255.851563 L 270.886719 255.851563 L 270.886719 464.632813 L 256.203125 464.632813 L 124.289063 277.183594 L 124.289063 461.203125 L 146.636719 461.203125 L 146.636719 468.777344 L 86.664063 468.777344 L 86.664063 461.203125 L 108.082031 461.203125 L 108.097656 255.851563 L 86.652344 255.851563 Z M 1217.351563 247.105469 L 1231.570313 247.105469 L 1327.480469 465.3125 L 1353.351563 465.3125 L 1353.351563 472.894531 L 1251.621094 472.894531 L 1251.621094 465.3125 L 1279.511719 465.3125 L 1245.910156 389.417969 L 1174.761719 389.417969 L 1142.148438 465.3125 L 1164.859375 465.3125 L 1164.859375 472.894531 L 1108.128906 472.894531 L 1108.128906 465.3125 L 1127.390625 465.3125 Z M 1210.300781 302.117188 L 1243.5 380.742188 L 1177.140625 380.742188 Z M 764.417969 247.105469 L 862.957031 247.167969 L 862.957031 255.730469 L 839.875 255.730469 L 888.296875 329.996094 L 950.007813 255.730469 L 930.375 255.730469 L 930.375 247.105469 L 984.0625 247.105469 L 984.0625 255.730469 L 967.355469 255.730469 L 897.195313 345.058594 L 971.347656 461.191406 L 992.46875 461.191406 L 992.46875 468.808594 L 893.988281 468.808594 L 893.988281 461.191406 L 919.980469 461.191406 L 867.707031 381.191406 L 803.765625 461.191406 L 821.007813 461.191406 L 821.007813 468.808594 L 767.644531 468.808594 L 767.644531 461.191406 L 785.851563 461.191406 L 858.949219 367.023438 L 789.101563 255.730469 L 764.417969 255.730469 Z M 434.589844 247.105469 L 615.664063 247.105469 L 615.664063 301.96875 C 614.164063 301.96875 612.664063 301.96875 611.164063 301.96875 C 600.445313 271.273438 581.730469 255.671875 548.589844 255.683594 L 505.414063 255.703125 L 505.414063 345.605469 C 512.960938 345.589844 520.441406 345.570313 527.988281 345.550781 C 551.820313 345.496094 563.757813 324.425781 568.53125 303.820313 L 572.726563 303.820313 L 572.726563 395.917969 C 571.347656 395.917969 569.964844 395.917969 568.585938 395.917969 C 562.8125 374.890625 550.910156 354.222656 526.203125 354.222656 L 505.414063 354.222656 L 505.414063 461.078125 C 518.027344 460.96875 530.640625 460.859375 543.253906 460.75 C 579.546875 460.4375 603.996094 433.113281 611.386719 399.148438 L 615.664063 399.148438 L 615.664063 468.746094 L 434.589844 468.746094 L 434.589844 461.128906 L 462.179688 461.128906 L 462.179688 255.902344 L 434.589844 255.902344 Z M 434.589844 247.105469 "/>
</g>
</svg>
