<?xml version="1.0" encoding="UTF-8"?>
<svg xmlns="http://www.w3.org/2000/svg" xmlns:xlink="http://www.w3.org/1999/xlink" width="75pt" height="59pt" viewBox="0 0 75 59" version="1.1">
<g id="surface1">
<path style=" stroke:none;fill-rule:evenodd;fill:rgb(16.899109%,16.899109%,53.29895%);fill-opacity:1;" d="M 40.617188 24.292969 C 40.566406 24.898438 40.023438 24.15625 40.617188 24.292969 Z M 47.8125 22.785156 C 47.902344 22.605469 48.425781 22.277344 48.742188 22.238281 C 49.328125 22.164063 48.972656 23.050781 48.742188 23 C 48.625 22.941406 48.671875 22.714844 48.628906 22.53125 C 48.308594 22.511719 48.101563 22.722656 47.8125 22.785156 Z M 34.515625 24.28125 C 34.414063 23.53125 34.765625 22.378906 35.050781 21.703125 C 35.144531 22.292969 34.710938 23.988281 34.515625 24.28125 Z M 55.675781 21.527344 C 55.777344 21.804688 55.148438 22.371094 54.96875 22.515625 C 54.792969 22.65625 54.089844 23.171875 53.828125 22.847656 C 53.347656 22.257813 54.414063 20.625 54.941406 20.816406 C 55.019531 21.003906 54.761719 21.308594 54.875 21.515625 C 55.085938 21.65625 55.398438 21.472656 55.675781 21.527344 Z M 48.347656 19.585938 C 48.246094 19.328125 48.578125 18.304688 48.710938 17.984375 C 48.773438 17.839844 48.859375 17.632813 48.996094 17.644531 C 49.074219 18.050781 48.574219 19.359375 48.347656 19.585938 Z M 65.972656 22.160156 L 65.972656 21.503906 C 65.882813 21.304688 65.898438 21.183594 65.765625 20.980469 C 65.40625 20.425781 64.773438 20.40625 64.203125 20.652344 C 63.824219 20.816406 63.589844 20.996094 63.324219 21.222656 C 63.128906 21.386719 62.75 21.765625 62.367188 21.714844 C 61.984375 21.289063 62.539063 20.109375 62.730469 19.710938 C 62.902344 19.347656 62.925781 19.351563 63.089844 19.082031 C 63.425781 18.523438 63.53125 18.519531 63.898438 18.261719 C 63.828125 18.003906 63.410156 17.289063 63.332031 17.007813 C 62.59375 17.054688 61.953125 17.34375 61.277344 17.445313 L 61.195313 17.054688 L 59.34375 17.355469 C 59.199219 17.832031 59.109375 18.414063 58.996094 18.914063 C 58.78125 19.863281 58.511719 21.019531 58.195313 21.929688 C 58.058594 22.328125 57.84375 23.074219 57.414063 23.074219 C 56.964844 22.050781 58.285156 19.519531 58.371094 18.253906 L 56.078125 18.515625 C 56.109375 18.789063 56.230469 19.054688 56.1875 19.347656 C 53.726563 18.210938 52.222656 21.363281 51.90625 23.265625 C 51.863281 23.519531 51.863281 23.851563 51.820313 24.074219 C 51.777344 24.296875 50.667969 25.464844 49.53125 24.566406 C 49.414063 24.472656 49.160156 24.246094 49.113281 24.117188 C 49.84375 23.898438 50.691406 23.148438 51.085938 22.476563 C 51.578125 21.628906 51.78125 20.375 50.976563 19.9375 C 50.691406 19.78125 50.296875 19.78125 49.953125 19.863281 C 49.472656 19.972656 49.203125 20.148438 49.09375 20.175781 C 49.253906 19.804688 49.445313 19.652344 49.738281 18.871094 C 50.140625 17.800781 50.5625 15.40625 49.835938 14.371094 C 49.730469 14.226563 49.707031 14.269531 49.578125 14.164063 L 49.238281 14.164063 C 49.082031 14.277344 48.976563 14.3125 48.847656 14.449219 C 48.503906 14.816406 48.277344 15.304688 48.105469 15.792969 C 47.863281 16.480469 47.621094 17.15625 47.398438 17.875 C 47.0625 18.964844 46.769531 20.136719 46.636719 21.285156 C 46.609375 21.5625 46.554688 22.335938 46.492188 22.542969 L 45.386719 22.921875 C 45.402344 22.191406 45.800781 21.726563 46.171875 21.203125 C 46.292969 21.027344 46.445313 20.90625 46.5625 20.734375 L 44.441406 20.644531 C 44.339844 20.882813 44.269531 20.773438 43.953125 21.707031 C 43.492188 23.0625 42.992188 23.578125 41.53125 23.957031 C 41.46875 23.863281 41.449219 23.765625 41.398438 23.65625 C 41.03125 22.8125 40.125 22.785156 39.574219 23.476563 C 39.335938 23.773438 39.121094 24.308594 39.253906 24.8125 C 39.328125 25.085938 39.429688 25.175781 39.585938 25.328125 C 39.765625 25.507813 39.917969 25.515625 40.132813 25.644531 C 39.90625 27.222656 38.644531 27.433594 38.609375 25.960938 C 38.585938 25.113281 38.679688 24.34375 39.257813 23.757813 C 40.234375 22.761719 38.714844 22.332031 37.515625 24.171875 C 36.445313 25.816406 36.871094 26.441406 36.699219 26.816406 C 36.367188 27.535156 35.089844 28.28125 34.769531 27.148438 C 34.628906 26.648438 34.808594 26.527344 34.964844 26.207031 C 35.089844 25.945313 35.171875 25.671875 35.285156 25.402344 C 35.859375 24.019531 36.324219 22.40625 36.523438 20.878906 C 36.585938 20.359375 36.820313 18.101563 35.859375 18.273438 C 35 18.421875 33.972656 21.113281 33.714844 21.886719 C 32.960938 24.152344 33.3125 25.117188 33.089844 26.984375 C 33.015625 27.601563 32.617188 28.0625 32.1875 28.414063 C 30.613281 29.691406 31.726563 27.28125 32.058594 26.765625 C 32.367188 26.277344 32.367188 26.582031 32.066406 25.890625 C 31.9375 25.59375 31.71875 25.199219 31.644531 24.917969 C 31.132813 25.007813 30.523438 25.265625 30.023438 25.28125 L 29.996094 24.992188 C 29.753906 25.003906 27.976563 25.234375 27.855469 25.289063 C 27.75 25.679688 27.691406 26.375 27.625 26.820313 C 27.449219 27.902344 27.378906 28.671875 26.992188 29.71875 C 26.914063 29.921875 26.832031 30.160156 26.734375 30.34375 C 26.640625 30.523438 26.523438 30.761719 26.296875 30.746094 C 25.910156 30.613281 26.382813 28.675781 26.449219 28.332031 C 26.609375 27.484375 26.792969 26.765625 26.871094 25.898438 L 24.199219 26.558594 C 24.253906 26.625 24.324219 26.734375 24.386719 26.816406 C 24.660156 27.167969 24.523438 27.140625 24.421875 27.921875 L 24.070313 30.367188 C 24.019531 30.707031 23.988281 30.804688 23.792969 31.003906 C 23.480469 31.320313 22.886719 31.453125 22.363281 31.28125 C 21.480469 30.984375 21.121094 29.894531 20.839844 29.09375 C 20.617188 28.453125 20.125 26.769531 19.542969 26.6875 C 20.03125 26.234375 20.550781 25.773438 20.96875 25.25 C 21.519531 24.566406 22.128906 23.910156 22.683594 23.21875 C 22.925781 22.910156 23.171875 22.621094 23.429688 22.308594 C 24.167969 21.398438 24.96875 20.5 25.902344 19.800781 C 26.488281 19.363281 27.226563 18.902344 28.054688 18.628906 C 28.410156 18.515625 29.097656 18.324219 29.496094 18.46875 C 29.941406 18.628906 29.746094 19.269531 30.003906 19.617188 C 30.265625 19.972656 30.828125 19.941406 31.222656 19.71875 C 32.585938 18.945313 32.296875 17.320313 31.535156 16.316406 C 31.464844 16.222656 31.414063 16.207031 31.339844 16.121094 C 30.796875 15.511719 29.800781 15.496094 29.03125 15.585938 C 27.691406 15.734375 26.007813 16.429688 24.976563 17.316406 C 24.59375 17.648438 24.277344 18.003906 23.9375 18.363281 C 23.871094 18.433594 23.820313 18.503906 23.742188 18.589844 C 23.671875 18.671875 23.648438 18.714844 23.570313 18.808594 L 22.761719 19.871094 C 22.734375 19.90625 22.710938 19.945313 22.675781 19.996094 L 20.992188 22.484375 C 20.140625 23.765625 19.207031 25.1875 17.90625 26.03125 C 17.59375 26.234375 17.152344 26.425781 16.703125 26.476563 L 17.917969 19.308594 L 16.492188 19.28125 C 16.351563 19.566406 16.144531 19.820313 15.933594 20.039063 C 15.464844 20.523438 14.757813 20.84375 14.03125 20.777344 C 13.523438 20.726563 13.355469 20.574219 12.976563 20.480469 L 12.148438 24.09375 C 13.375 24.09375 14.492188 23.753906 15.359375 22.960938 C 15.503906 22.832031 15.566406 22.777344 15.707031 22.667969 C 15.640625 23.144531 15.480469 23.726563 15.386719 24.222656 C 15.097656 25.765625 14.851563 27.394531 14.398438 28.886719 C 13.980469 30.25 13.46875 31.640625 12.308594 32.414063 C 11.855469 32.714844 11.421875 32.792969 10.800781 32.804688 C 10.675781 33.023438 9.535156 37.105469 9.484375 37.511719 C 10.945313 37.292969 12.375 36.738281 13.433594 35.800781 L 14.066406 35.160156 C 15.359375 33.625 15.851563 30.878906 16.320313 28.863281 C 16.378906 28.613281 16.417969 28.320313 16.53125 28.082031 C 16.535156 28.074219 16.542969 28.0625 16.542969 28.058594 C 16.546875 28.050781 16.550781 28.039063 16.558594 28.03125 C 16.988281 28.085938 17.300781 28.058594 17.664063 27.917969 C 17.816406 27.859375 17.953125 27.78125 18.0625 27.710938 C 18.207031 27.617188 18.292969 27.507813 18.433594 27.445313 C 18.472656 27.613281 18.601563 27.871094 18.664063 28.050781 C 18.746094 28.28125 18.824219 28.488281 18.890625 28.710938 C 19.292969 30.046875 19.546875 31.945313 20.058594 32.847656 C 20.847656 34.242188 22.175781 34.457031 23.492188 33.496094 C 23.796875 33.273438 24.34375 32.6875 24.398438 32.652344 C 24.582031 32.734375 24.753906 33.210938 25.519531 33.082031 C 25.960938 33.007813 26.355469 32.839844 26.65625 32.632813 C 27.976563 31.703125 28.582031 30.277344 29.125 28.742188 L 29.675781 26.925781 C 29.761719 26.816406 30.148438 26.75 30.316406 26.726563 C 30.242188 26.898438 30.113281 27.066406 30.03125 27.246094 C 29.597656 28.175781 29.109375 29.289063 29.113281 30.339844 C 29.125 32.019531 30.566406 32.007813 31.605469 31.261719 C 31.988281 30.984375 32.355469 30.648438 32.636719 30.273438 L 33.347656 29.402344 C 33.382813 30.507813 34.613281 30.894531 35.410156 30.332031 C 36.050781 29.878906 36.609375 29.496094 36.945313 28.792969 C 37.003906 28.675781 37.042969 28.558594 37.128906 28.511719 C 37.394531 30.261719 39.40625 29.570313 40.285156 28.847656 C 40.953125 28.300781 41.335938 27.105469 41.476563 26.261719 C 41.53125 25.925781 41.535156 25.382813 41.601563 25.113281 C 41.804688 24.960938 43.019531 24.585938 43.359375 24.488281 C 43.429688 24.816406 43.410156 25.46875 43.335938 25.792969 C 43.28125 26.039063 43.039063 26.574219 42.75 26.582031 C 42.710938 26.226563 42.84375 25.742188 42.492188 25.558594 C 41.734375 25.160156 41.015625 27.261719 41.683594 27.996094 C 41.953125 28.296875 42.394531 28.480469 42.945313 28.441406 C 43.984375 28.371094 44.671875 27.789063 45.042969 27.140625 C 45.535156 26.28125 45.503906 25.222656 45.480469 24.148438 L 46.207031 23.945313 L 45.667969 27.71875 L 47.753906 27.050781 L 47.515625 25.984375 C 47.628906 26.03125 47.535156 25.980469 47.652344 26.058594 L 48.058594 26.285156 C 49.273438 26.839844 50.957031 26.777344 51.84375 25.710938 L 52.234375 25.257813 C 52.238281 25.261719 52.25 25.265625 52.25 25.273438 L 52.359375 25.445313 C 52.722656 26.003906 53.519531 26.035156 54.136719 25.921875 C 55.351563 25.695313 55.503906 25.09375 55.765625 24.863281 C 56.039063 25.128906 55.925781 25.378906 56.542969 25.417969 C 58.242188 25.535156 59.15625 22.949219 59.597656 21.632813 C 59.890625 20.761719 59.933594 20.257813 60.125 19.40625 C 60.371094 19.304688 60.960938 19.128906 61.253906 19.167969 C 60.9375 19.507813 60.308594 20.867188 60.15625 21.378906 C 60.015625 21.84375 59.90625 22.328125 59.976563 22.847656 C 60.042969 23.351563 60.273438 23.726563 60.582031 23.9375 C 61.8125 24.78125 63.039063 23.476563 63.804688 22.660156 C 64.023438 22.429688 64.488281 21.742188 64.695313 21.941406 C 64.984375 22.226563 64.457031 22.832031 64.242188 23.058594 C 62.378906 25.039063 55.214844 26.757813 52.511719 27.644531 C 51.382813 28.011719 50.199219 28.351563 49.054688 28.679688 C 47.898438 29.011719 46.753906 29.375 45.601563 29.710938 C 43.296875 30.382813 40.972656 31.132813 38.671875 31.785156 C 36.378906 32.441406 34.0625 33.175781 31.777344 33.867188 L 19.726563 37.566406 C 19.140625 37.746094 18.585938 37.945313 18 38.105469 C 17.839844 38.148438 17.722656 38.148438 17.652344 38.289063 C 17.488281 38.597656 17.308594 39.175781 17.183594 39.511719 L 15.929688 42.78125 C 15.808594 43.082031 15.316406 44.226563 15.328125 44.433594 C 17.53125 43.617188 19.675781 42.71875 21.882813 41.882813 C 24.078125 41.050781 26.265625 40.191406 28.445313 39.332031 C 30.621094 38.472656 32.820313 37.609375 35 36.777344 C 36.097656 36.355469 37.171875 35.90625 38.28125 35.5 C 39.382813 35.097656 40.464844 34.628906 41.558594 34.222656 C 42.664063 33.816406 43.75 33.367188 44.839844 32.945313 C 45.933594 32.515625 47.039063 32.113281 48.101563 31.648438 C 48.625 31.417969 49.175781 31.222656 49.710938 30.996094 C 50.25 30.773438 50.792969 30.5625 51.339844 30.332031 C 51.878906 30.109375 52.414063 29.902344 52.949219 29.679688 L 57.835938 27.714844 C 58.933594 27.289063 60.058594 26.902344 61.109375 26.429688 C 61.628906 26.199219 62.152344 25.949219 62.625 25.683594 L 63.671875 25.035156 C 63.8125 24.941406 63.894531 24.878906 64.023438 24.785156 C 64.257813 24.621094 64.445313 24.445313 64.644531 24.277344 C 65.070313 23.925781 65.375 23.515625 65.675781 23.011719 C 65.746094 22.882813 65.800781 22.757813 65.847656 22.617188 C 65.894531 22.484375 65.933594 22.25 65.972656 22.160156 "/>
<path style=" stroke:none;fill-rule:evenodd;fill:rgb(16.899109%,16.899109%,53.29895%);fill-opacity:1;" d="M 25.125 23.152344 C 25.066406 23.320313 25.050781 23.367188 25.035156 23.558594 C 25.007813 23.945313 24.808594 24.628906 24.902344 24.957031 L 26.738281 24.625 C 26.769531 24.316406 27.023438 22.921875 27.007813 22.789063 C 26.773438 22.78125 25.421875 23.078125 25.125 23.152344 "/>
</g>
</svg>
