<?xml version="1.0" encoding="UTF-8"?>
<svg xmlns="http://www.w3.org/2000/svg" xmlns:xlink="http://www.w3.org/1999/xlink" width="472.2pt" height="199.4pt" viewBox="0 0 472.2 199.4" version="1.1">
<defs>
<clipPath id="clip1">
  <path d="M 0 0 L 472.199219 0 L 472.199219 150 L 0 150 Z M 0 0 "/>
</clipPath>
<clipPath id="clip2">
  <path d="M 30 168 L 444 168 L 444 199.398438 L 30 199.398438 Z M 30 168 "/>
</clipPath>
</defs>
<g id="surface1">
<g clip-path="url(#clip1)" clip-rule="nonzero">
<path style=" stroke:none;fill-rule:evenodd;fill:rgb(86.71875%,16.868591%,10.984802%);fill-opacity:1;" d="M 0.0195313 149.125 L 472.226563 149.125 L 472.226563 -0.0664063 L 0.0195313 -0.0664063 Z M 0.0195313 149.125 "/>
</g>
<path style=" stroke:none;fill-rule:evenodd;fill:rgb(100%,100%,100%);fill-opacity:1;" d="M 29.585938 29.058594 L 49.757813 29.058594 L 49.757813 120 L 29.585938 120 Z M 138.839844 29.058594 L 159.015625 29.058594 L 159.015625 101.25 C 159.878906 116.054688 139.441406 128.605469 127.140625 113.378906 L 86.382813 52.449219 L 86.382813 120 L 66.210938 120 L 66.210938 45.484375 C 65.980469 30.316406 88.296875 22.667969 98.578125 36.09375 L 138.839844 96.695313 Z M 198.121094 29.058594 L 244.679688 29.058594 L 244.679688 42.847656 C 244.679688 45.628906 242.402344 47.90625 239.621094 47.90625 L 218.296875 47.90625 L 218.296875 120 L 198.121094 120 L 198.121094 47.90625 L 176.800781 47.90625 C 174.015625 47.90625 171.738281 45.628906 171.738281 42.847656 L 171.738281 29.058594 Z M 277.597656 69.011719 L 277.597656 78.4375 L 307.882813 78.4375 C 322.324219 78.4375 337.652344 71.800781 336.90625 54.746094 C 336.824219 39.867188 327.402344 29.464844 314.785156 29.296875 C 306.136719 29.296875 300.800781 29.296875 292.152344 29.296875 C 261.597656 31.875 247.242188 48.925781 247.625 74.269531 C 248.007813 99.867188 263.820313 118.425781 299.132813 119.765625 C 312.574219 120.277344 325.113281 116.765625 336.183594 110.128906 C 336.183594 103.328125 336.183594 96.523438 336.183594 89.722656 C 325.648438 96.589844 313.804688 99.984375 299.730469 100.175781 C 279.285156 100.457031 267.480469 90.191406 267.109375 73.675781 C 266.777344 59.046875 277.859375 49.089844 289.824219 48.714844 C 297.214844 48.480469 304.617188 48.714844 312.011719 48.714844 C 319.097656 48.957031 320.054688 59.074219 312.09375 59.652344 C 309.191406 59.652344 306.230469 59.617188 303.296875 59.601563 C 303.140625 59.59375 302.980469 59.589844 302.824219 59.589844 L 287.023438 59.589844 C 281.839844 59.589844 277.597656 63.828125 277.597656 69.011719 Z M 376.949219 39.097656 C 371.191406 31.980469 362.308594 29.191406 351.867188 28.964844 C 351.867188 35.984375 351.867188 42.203125 351.867188 49.226563 C 356.867188 48.214844 361.730469 49.636719 365 53.679688 C 370.265625 60.429688 375.589844 67.511719 380.855469 74.265625 C 375.515625 81.820313 370.015625 88.9375 363.785156 95.601563 C 360.484375 99.371094 356.320313 100.4375 351.835938 99.855469 C 351.835938 106.402344 351.835938 112.949219 351.835938 119.5 C 361.75 120.105469 370.171875 117.117188 376.546875 109.574219 C 382.261719 103.882813 387.621094 96.769531 392.746094 88.714844 C 395.800781 84.6875 400.058594 84.1875 403.480469 88.714844 C 409.351563 97.089844 415.667969 104.90625 422.71875 111.804688 C 428.351563 117.710938 435.808594 119.785156 444.390625 119.5 C 444.390625 113.019531 444.390625 106.539063 444.390625 100.058594 C 439.53125 99.960938 435.304688 98.132813 431.628906 94.792969 C 426.296875 87.570313 421.214844 81.605469 415.878906 74.382813 C 420.875 68.238281 425.621094 60.835938 430.617188 54.691406 C 434.53125 50.207031 439.023438 47.683594 444.414063 48.210938 C 444.414063 41.730469 444.414063 35.25 444.414063 28.769531 C 433.8125 29.691406 424.164063 32.644531 418.464844 39.910156 C 413.671875 46.253906 408.882813 52.601563 404.085938 58.945313 C 400.046875 64.328125 395.765625 63.492188 392.339844 58.945313 C 387.210938 52.332031 382.082031 45.714844 376.949219 39.097656 Z M 376.949219 39.097656 "/>
<g clip-path="url(#clip2)" clip-rule="nonzero">
<path style=" stroke:none;fill-rule:evenodd;fill:rgb(86.71875%,16.868591%,10.984802%);fill-opacity:1;" d="M 37.011719 175.042969 L 37.011719 193.34375 C 37.148438 193.367188 37.28125 193.382813 37.402344 193.382813 C 37.53125 193.382813 37.726563 193.382813 37.988281 193.382813 C 38.714844 193.382813 39.324219 193.277344 39.804688 193.078125 C 40.289063 192.878906 40.679688 192.558594 40.980469 192.117188 C 41.230469 191.769531 41.398438 191.089844 41.496094 190.085938 C 41.589844 189.078125 41.636719 187.113281 41.636719 184.171875 L 41.636719 182.855469 C 41.636719 180.441406 41.589844 178.816406 41.507813 177.96875 C 41.417969 177.121094 41.257813 176.539063 41.011719 176.230469 C 40.75 175.8125 40.363281 175.503906 39.855469 175.304688 C 39.351563 175.105469 38.703125 175.003906 37.917969 175.003906 C 37.675781 175.003906 37.496094 175.003906 37.359375 175.011719 C 37.230469 175.015625 37.113281 175.03125 37.011719 175.042969 Z M 30.191406 198.621094 L 30.191406 169.648438 L 37.667969 169.648438 C 40.402344 169.648438 42.425781 169.886719 43.742188 170.355469 C 45.058594 170.824219 46.105469 171.632813 46.875 172.769531 C 47.480469 173.660156 47.902344 174.8125 48.152344 176.222656 C 48.402344 177.636719 48.53125 180.269531 48.53125 184.132813 C 48.53125 188 48.402344 190.632813 48.152344 192.039063 C 47.902344 193.4375 47.480469 194.59375 46.875 195.5 C 46.105469 196.636719 45.058594 197.445313 43.742188 197.914063 C 42.425781 198.382813 40.402344 198.621094 37.667969 198.621094 Z M 70.578125 198.621094 L 70.578125 169.648438 L 86.335938 169.648438 L 86.335938 175.273438 L 77.320313 175.273438 L 77.320313 180.589844 L 85.644531 180.589844 L 85.644531 186.40625 L 77.320313 186.40625 L 77.320313 192.726563 L 86.335938 192.726563 L 86.335938 198.621094 Z M 108.460938 198.621094 L 108.460938 169.648438 L 117.9375 169.648438 L 120.519531 181.96875 C 120.53125 182.035156 120.632813 182.804688 120.832031 184.292969 C 121.027344 185.777344 121.230469 187.269531 121.441406 188.765625 C 121.605469 187.648438 121.808594 186.265625 122.054688 184.617188 C 122.296875 182.964844 122.4375 182.054688 122.476563 181.875 L 125.039063 169.648438 L 134.425781 169.648438 L 134.425781 198.621094 L 128.03125 198.621094 L 128.617188 176.230469 L 124.023438 198.621094 L 118.863281 198.621094 L 114.269531 176.230469 L 114.855469 198.621094 Z M 163.40625 187.832031 L 167.304688 187.832031 L 165.367188 175.195313 Z M 155.039063 198.621094 L 161.359375 169.648438 L 169.410156 169.648438 L 175.652344 198.621094 L 168.886719 198.621094 L 168.039063 193.074219 L 162.714844 193.074219 L 161.867188 198.621094 Z M 196.230469 198.621094 L 196.230469 169.648438 L 203.277344 169.648438 L 208.910156 187.519531 C 208.6875 184.511719 208.519531 181.914063 208.410156 179.730469 C 208.300781 177.554688 208.25 175.703125 208.25 174.199219 L 208.25 169.648438 L 214.296875 169.648438 L 214.296875 198.621094 L 207.214844 198.621094 L 201.546875 180.203125 C 201.796875 182.601563 201.988281 184.925781 202.117188 187.171875 C 202.253906 189.425781 202.316406 191.609375 202.316406 193.726563 L 202.316406 198.621094 Z M 243.773438 175.042969 L 243.773438 193.34375 C 243.910156 193.367188 244.042969 193.382813 244.164063 193.382813 C 244.292969 193.382813 244.484375 193.382813 244.75 193.382813 C 245.476563 193.382813 246.085938 193.277344 246.566406 193.078125 C 247.046875 192.878906 247.441406 192.558594 247.742188 192.117188 C 247.992188 191.769531 248.160156 191.089844 248.257813 190.085938 C 248.351563 189.078125 248.398438 187.113281 248.398438 184.171875 L 248.398438 182.855469 C 248.398438 180.441406 248.351563 178.816406 248.269531 177.96875 C 248.179688 177.121094 248.019531 176.539063 247.773438 176.230469 C 247.511719 175.8125 247.125 175.503906 246.617188 175.304688 C 246.109375 175.105469 245.460938 175.003906 244.679688 175.003906 C 244.433594 175.003906 244.253906 175.003906 244.121094 175.011719 C 243.992188 175.015625 243.875 175.03125 243.773438 175.042969 Z M 236.953125 198.621094 L 236.953125 169.648438 L 244.429688 169.648438 C 247.164063 169.648438 249.1875 169.886719 250.503906 170.355469 C 251.820313 170.824219 252.867188 171.632813 253.636719 172.769531 C 254.242188 173.660156 254.664063 174.8125 254.914063 176.222656 C 255.164063 177.636719 255.292969 180.269531 255.292969 184.132813 C 255.292969 188 255.164063 190.632813 254.914063 192.039063 C 254.664063 193.4375 254.242188 194.59375 253.636719 195.5 C 252.867188 196.636719 251.820313 197.445313 250.503906 197.914063 C 249.1875 198.382813 247.164063 198.621094 244.429688 198.621094 Z M 297.992188 198.621094 L 297.992188 169.648438 L 307.46875 169.648438 L 310.050781 181.96875 C 310.0625 182.035156 310.164063 182.804688 310.363281 184.292969 C 310.558594 185.777344 310.761719 187.269531 310.976563 188.765625 C 311.136719 187.648438 311.339844 186.265625 311.585938 184.617188 C 311.828125 182.964844 311.96875 182.054688 312.007813 181.875 L 314.570313 169.648438 L 323.957031 169.648438 L 323.957031 198.621094 L 317.5625 198.621094 L 318.148438 176.230469 L 313.554688 198.621094 L 308.394531 198.621094 L 303.800781 176.230469 L 304.386719 198.621094 Z M 358.558594 186.75 L 358.558594 181.519531 C 358.558594 178.308594 358.351563 176.320313 357.949219 175.5625 C 357.539063 174.804688 356.804688 174.425781 355.738281 174.425781 C 354.699219 174.425781 353.972656 174.816406 353.574219 175.59375 C 353.171875 176.371094 352.972656 178.34375 352.972656 181.519531 L 352.972656 186.75 C 352.972656 189.886719 353.171875 191.851563 353.574219 192.648438 C 353.972656 193.445313 354.710938 193.84375 355.777344 193.84375 C 356.832031 193.84375 357.554688 193.453125 357.953125 192.675781 C 358.359375 191.898438 358.558594 189.925781 358.558594 186.75 Z M 346.074219 184.132813 C 346.074219 180.648438 346.203125 178.105469 346.453125 176.5 C 346.703125 174.894531 347.113281 173.636719 347.691406 172.738281 C 348.519531 171.457031 349.605469 170.507813 350.949219 169.886719 C 352.292969 169.261719 353.902344 168.953125 355.785156 168.953125 C 357.679688 168.953125 359.289063 169.261719 360.613281 169.886719 C 361.9375 170.507813 363.007813 171.457031 363.835938 172.738281 C 364.441406 173.648438 364.863281 174.914063 365.113281 176.519531 C 365.363281 178.125 365.492188 180.660156 365.492188 184.132813 C 365.492188 187.59375 365.363281 190.132813 365.113281 191.742188 C 364.863281 193.355469 364.441406 194.621094 363.835938 195.53125 C 363.019531 196.796875 361.949219 197.746094 360.613281 198.378906 C 359.277344 199 357.664063 199.3125 355.785156 199.3125 C 353.902344 199.3125 352.292969 199 350.949219 198.378906 C 349.605469 197.746094 348.519531 196.796875 347.691406 195.53125 C 347.113281 194.632813 346.703125 193.375 346.453125 191.769531 C 346.203125 190.164063 346.074219 187.621094 346.074219 184.132813 Z M 394.25 181.707031 C 394.363281 181.707031 394.511719 181.714844 394.691406 181.726563 C 394.871094 181.738281 395.007813 181.746094 395.097656 181.746094 C 396.496094 181.746094 397.492188 181.464844 398.078125 180.898438 C 398.660156 180.332031 398.949219 179.382813 398.949219 178.039063 C 398.949219 176.800781 398.660156 175.921875 398.078125 175.402344 C 397.492188 174.882813 396.496094 174.617188 395.097656 174.617188 C 395.007813 174.617188 394.871094 174.625 394.691406 174.636719 C 394.511719 174.648438 394.363281 174.65625 394.25 174.65625 Z M 387.546875 198.621094 L 387.546875 169.648438 L 395.167969 169.648438 C 397.664063 169.648438 399.476563 169.761719 400.601563 169.996094 C 401.730469 170.226563 402.640625 170.625 403.347656 171.1875 C 404.171875 171.871094 404.785156 172.699219 405.199219 173.691406 C 405.601563 174.683594 405.808594 175.863281 405.808594 177.226563 C 405.808594 178.894531 405.519531 180.292969 404.933594 181.425781 C 404.355469 182.546875 403.449219 183.480469 402.222656 184.207031 C 404.316406 185.136719 405.421875 187.339844 405.539063 190.8125 L 405.539063 190.902344 C 405.550781 191.269531 405.5625 191.796875 405.578125 192.488281 C 405.628906 195.75 406.167969 197.792969 407.195313 198.621094 L 399.269531 198.621094 C 399.089844 198.019531 398.960938 197.386719 398.878906 196.726563 C 398.800781 196.070313 398.757813 195.367188 398.757813 194.613281 C 398.757813 194.144531 398.769531 193.585938 398.796875 192.925781 C 398.820313 192.265625 398.835938 191.839844 398.835938 191.632813 C 398.835938 189.867188 398.601563 188.65625 398.140625 188 C 397.679688 187.351563 396.84375 187.023438 395.644531 187.023438 L 394.25 187.023438 L 394.25 198.621094 Z M 428.046875 198.621094 L 428.046875 169.648438 L 443.804688 169.648438 L 443.804688 175.273438 L 434.789063 175.273438 L 434.789063 180.589844 L 443.109375 180.589844 L 443.109375 186.40625 L 434.789063 186.40625 L 434.789063 192.726563 L 443.804688 192.726563 L 443.804688 198.621094 Z M 428.046875 198.621094 "/>
</g>
</g>
</svg>
