<?xml version="1.0" encoding="UTF-8"?>
<svg xmlns="http://www.w3.org/2000/svg" xmlns:xlink="http://www.w3.org/1999/xlink" width="75pt" height="58pt" viewBox="0 0 75 58" version="1.1">
<g id="surface1">
<path style=" stroke:none;fill-rule:evenodd;fill:rgb(96.099854%,50.999451%,12.199402%);fill-opacity:1;" d="M 55.046875 29.359375 L 55.046875 27.757813 C 55.363281 25.835938 56.121094 24.054688 57.058594 22.339844 L 60.15625 22.339844 C 58.195313 24.53125 56.527344 26.890625 55.046875 29.359375 "/>
<path style=" stroke:none;fill-rule:evenodd;fill:rgb(96.099854%,50.999451%,12.199402%);fill-opacity:1;" d="M 55.054688 36.507813 L 62.324219 36.507813 C 61.664063 36.042969 60.898438 35.578125 60.027344 35.113281 L 62.222656 34.46875 C 61.265625 34.148438 60.21875 33.964844 59.125 33.851563 L 60.984375 32.507813 C 59.910156 32.585938 58.871094 32.722656 57.9375 33.074219 L 59.226563 31.035156 C 58.164063 31.441406 56.988281 31.890625 56.265625 32.570313 L 56.046875 32.65625 L 55.03125 33.71875 L 55.054688 36.507813 "/>
<path style=" stroke:none;fill-rule:evenodd;fill:rgb(76.899719%,8.198547%,10.998535%);fill-opacity:1;" d="M 55.050781 34.238281 L 55.050781 32.40625 C 55.742188 31.453125 56.394531 30.566406 57.085938 30.167969 L 56.339844 32.609375 L 55.050781 34.238281 "/>
<path style=" stroke:none;fill-rule:evenodd;fill:rgb(96.099854%,50.999451%,12.199402%);fill-opacity:1;" d="M 69.449219 36.480469 L 69.449219 35.113281 C 67.1875 34.492188 64.984375 34.476563 62.789063 34.546875 C 64.273438 35.082031 65.800781 35.546875 66.996094 36.507813 L 69.449219 36.480469 "/>
<path style=" stroke:none;fill-rule:evenodd;fill:rgb(96.099854%,50.999451%,12.199402%);fill-opacity:1;" d="M 61.449219 32.507813 C 64.171875 32.386719 66.824219 32.539063 69.34375 33.179688 L 69.34375 30.570313 C 65.886719 30.578125 63.394531 31.332031 61.449219 32.507813 "/>
<path style=" stroke:none;fill-rule:evenodd;fill:rgb(96.099854%,50.999451%,12.199402%);fill-opacity:1;" d="M 59.613281 30.855469 C 62.496094 29.519531 65.785156 28.785156 69.214844 28.273438 L 69.214844 25.71875 C 65.101563 26.40625 62.007813 28.242188 59.613281 30.855469 "/>
<path style=" stroke:none;fill-rule:evenodd;fill:rgb(76.899719%,8.198547%,10.998535%);fill-opacity:1;" d="M 57.320313 29.796875 C 59.25 28.3125 61.179688 26.980469 63.109375 25.753906 C 64.535156 24.851563 65.789063 24.113281 66.996094 22.921875 C 69.117188 20.828125 68.476563 20.523438 66.195313 21.285156 C 64.742188 21.769531 63.652344 22.308594 62.453125 23.261719 C 60.28125 24.976563 58.519531 27.109375 57.320313 29.796875 "/>
<path style=" stroke:none;fill-rule:evenodd;fill:rgb(13.699341%,12.199402%,12.5%);fill-opacity:1;" d="M 10.40625 32.417969 L 11.292969 31.402344 C 9.523438 30.136719 7.082031 30.285156 6.160156 32.136719 C 5.492188 33.480469 5.632813 35.183594 6.957031 36.070313 C 8.066406 36.8125 9.773438 36.847656 11.265625 35.757813 L 10.449219 34.886719 C 9.703125 35.449219 8.984375 35.621094 8.417969 35.503906 C 7.109375 35.226563 6.925781 33.367188 7.597656 32.433594 C 8.226563 31.5625 9.53125 31.503906 10.40625 32.417969 "/>
<path style=" stroke:none;fill-rule:evenodd;fill:rgb(13.699341%,12.199402%,12.5%);fill-opacity:1;" d="M 13.816406 31.824219 C 15.179688 31.824219 16.289063 32.929688 16.289063 34.296875 C 16.289063 35.660156 15.179688 36.769531 13.816406 36.769531 C 12.449219 36.769531 11.34375 35.660156 11.34375 34.296875 C 11.34375 32.929688 12.449219 31.824219 13.816406 31.824219 Z M 13.816406 33.0625 C 14.496094 33.0625 15.046875 33.617188 15.046875 34.296875 C 15.046875 34.976563 14.496094 35.527344 13.816406 35.527344 C 13.136719 35.527344 12.582031 34.976563 12.582031 34.296875 C 12.582031 33.617188 13.136719 33.0625 13.816406 33.0625 "/>
<path style=" stroke:none;fill-rule:evenodd;fill:rgb(13.699341%,12.199402%,12.5%);fill-opacity:1;" d="M 21.859375 31.824219 C 23.222656 31.824219 24.332031 32.929688 24.332031 34.296875 C 24.332031 35.660156 23.222656 36.769531 21.859375 36.769531 C 20.492188 36.769531 19.386719 35.660156 19.386719 34.296875 C 19.386719 32.929688 20.492188 31.824219 21.859375 31.824219 Z M 21.859375 33.0625 C 22.539063 33.0625 23.089844 33.617188 23.089844 34.296875 C 23.089844 34.976563 22.539063 35.527344 21.859375 35.527344 C 21.179688 35.527344 20.625 34.976563 20.625 34.296875 C 20.625 33.617188 21.179688 33.0625 21.859375 33.0625 "/>
<path style=" stroke:none;fill-rule:evenodd;fill:rgb(13.699341%,12.199402%,12.5%);fill-opacity:1;" d="M 16.71875 36.617188 L 17.957031 36.617188 L 18.039063 34.40625 C 18.066406 33.636719 18.65625 33.34375 19.398438 33.257813 L 19.398438 31.898438 C 18.867188 31.960938 18.386719 32.183594 18.015625 32.769531 L 18.015625 32.007813 L 16.71875 32.007813 L 16.71875 36.617188 "/>
<path style=" stroke:none;fill-rule:evenodd;fill:rgb(13.699341%,12.199402%,12.5%);fill-opacity:1;" d="M 24.738281 36.59375 L 25.964844 36.59375 L 25.964844 33.597656 C 25.964844 32.96875 27.5625 32.875 27.5625 33.597656 L 27.5625 36.613281 L 28.820313 36.613281 L 28.820313 33.628906 C 28.820313 32.890625 30.367188 32.855469 30.367188 33.628906 L 30.367188 36.59375 L 31.6875 36.59375 L 31.6875 33.425781 C 31.316406 31.460938 29.410156 31.566406 28.636719 32.578125 C 27.667969 31.566406 26.800781 31.699219 25.972656 32.578125 L 25.972656 31.933594 L 24.738281 31.933594 L 24.738281 36.59375 "/>
<path style=" stroke:none;fill-rule:evenodd;fill:rgb(13.699341%,12.199402%,12.5%);fill-opacity:1;" d="M 36.773438 36.59375 L 38 36.59375 L 38 33.597656 C 38 32.96875 39.597656 32.875 39.597656 33.597656 L 39.597656 36.613281 L 40.855469 36.613281 L 40.855469 33.628906 C 40.890625 32.007813 39.382813 31.117188 38.011719 32.578125 L 38.011719 31.933594 L 36.773438 31.933594 L 36.773438 36.59375 "/>
<path style=" stroke:none;fill-rule:evenodd;fill:rgb(13.699341%,12.199402%,12.5%);fill-opacity:1;" d="M 46.058594 30.257813 L 46.058594 36.632813 L 44.855469 36.632813 L 44.855469 35.9375 C 44.09375 36.519531 43.394531 36.679688 42.757813 36.460938 C 41.59375 36.070313 41.261719 34.996094 41.421875 33.859375 C 41.636719 32.335938 42.90625 31.183594 44.8125 32.445313 L 44.8125 30.285156 Z M 43.703125 33.027344 C 44.324219 33.027344 44.828125 33.585938 44.828125 34.277344 C 44.828125 34.972656 44.324219 35.53125 43.703125 35.53125 C 43.085938 35.53125 42.582031 34.972656 42.582031 34.277344 C 42.582031 33.585938 43.085938 33.027344 43.703125 33.027344 "/>
<path style=" stroke:none;fill-rule:evenodd;fill:rgb(13.699341%,12.199402%,12.5%);fill-opacity:1;" d="M 51.4375 30.273438 L 52.796875 30.273438 L 52.796875 36.519531 L 51.4375 36.519531 L 51.4375 30.273438 "/>
<path style=" stroke:none;fill-rule:evenodd;fill:rgb(13.699341%,12.199402%,12.5%);fill-opacity:1;" d="M 50 35.125 L 50.726563 35.910156 C 49.523438 36.730469 48.488281 36.804688 47.597656 36.222656 C 46.476563 35.496094 46.21875 34.023438 46.875 32.90625 C 47.914063 31.136719 50.992188 31.390625 50.957031 34.664063 L 47.84375 34.664063 C 47.832031 35.722656 49.496094 35.882813 50 35.125 Z M 48.742188 32.894531 C 49.273438 32.894531 49.707031 33.34375 49.738281 33.910156 L 47.742188 33.910156 C 47.773438 33.34375 48.207031 32.894531 48.742188 32.894531 "/>
<path style=" stroke:none;fill-rule:evenodd;fill:rgb(13.699341%,12.199402%,12.5%);fill-opacity:1;" d="M 36.171875 36.546875 L 34.960938 36.546875 L 34.960938 36.105469 C 34.261719 36.53125 33.613281 36.707031 33.039063 36.546875 C 32.308594 36.347656 31.976563 35.878906 32.011719 35.148438 C 32.0625 34.039063 33.152344 33.640625 34.921875 33.914063 C 35.042969 32.757813 33.828125 33.019531 32.652344 33.238281 L 32.339844 32.261719 C 34.140625 31.859375 35.761719 31.707031 36.125 33.320313 L 36.125 36.554688 Z M 34.953125 34.675781 C 34.988281 35.363281 34.675781 35.691406 34.15625 35.75 C 33.59375 35.8125 33.28125 35.761719 33.3125 35.144531 C 33.359375 34.253906 34.625 34.582031 34.953125 34.675781 "/>
</g>
</svg>
