<?xml version="1.0" encoding="UTF-8"?>
<svg xmlns="http://www.w3.org/2000/svg" xmlns:xlink="http://www.w3.org/1999/xlink" width="804.96pt" height="309.9pt" viewBox="0 0 804.96 309.9" version="1.1">
<defs>
<clipPath id="clip1">
  <path d="M 0 49 L 132 49 L 132 309.898438 L 0 309.898438 Z M 0 49 "/>
</clipPath>
<clipPath id="clip2">
  <path d="M 695 123 L 804.960938 123 L 804.960938 219 L 695 219 Z M 695 123 "/>
</clipPath>
</defs>
<g id="surface1">
<path style=" stroke:none;fill-rule:nonzero;fill:rgb(1.199341%,39.199829%,58.799744%);fill-opacity:1;" d="M 140.160156 0.234375 C 144.570313 -0.203125 148.980469 -0.203125 152.953125 1.777344 C 160.449219 5.085938 165.742188 12.808594 166.183594 20.96875 C 166.40625 22.953125 165.964844 24.9375 165.742188 26.921875 C 165.742188 31.996094 166.183594 37.289063 167.949219 42.140625 C 170.597656 49.417969 175.449219 56.257813 181.84375 60.886719 C 185.375 63.3125 189.34375 65.296875 193.53125 66.621094 C 200.8125 69.269531 206.546875 75.886719 207.867188 83.605469 C 208.972656 88.898438 208.089844 94.410156 205.222656 99.042969 C 200.8125 106.761719 191.328125 111.394531 182.503906 109.847656 C 174.785156 109.410156 166.625 110.511719 159.789063 114.261719 C 152.730469 118.011719 146.335938 123.964844 143.6875 131.683594 C 142.367188 135.214844 142.585938 139.183594 142.585938 142.933594 C 142.585938 148.886719 145.453125 154.621094 148.761719 159.472656 L 148.761719 159.695313 C 153.171875 165.867188 159.566406 170.5 166.40625 173.589844 C 169.050781 174.691406 171.917969 175.351563 174.347656 176.894531 C 181.183594 180.867188 185.59375 188.808594 185.375 196.746094 C 185.59375 208.214844 175.449219 218.582031 163.980469 218.582031 C 158.023438 218.359375 152.070313 218.359375 146.335938 219.683594 C 138.394531 221.667969 131.558594 226.519531 126.265625 232.695313 C 123.179688 236.445313 120.753906 240.855469 119.429688 245.488281 C 117.222656 252.765625 111.269531 258.722656 103.769531 260.484375 C 100.019531 261.367188 96.050781 261.367188 92.300781 260.265625 C 85.464844 258.28125 79.507813 252.988281 77.082031 246.148438 C 75.097656 240.414063 75.539063 233.800781 78.625 228.285156 C 82.597656 221.226563 90.316406 216.15625 98.695313 216.375 C 106.855469 217.257813 115.238281 216.597656 122.515625 213.066406 L 122.734375 213.066406 L 123.617188 212.625 L 123.839844 212.625 C 129.792969 209.316406 135.527344 204.90625 138.617188 198.730469 C 143.46875 189.46875 141.925781 177.777344 136.191406 169.179688 C 131.777344 162.339844 125.382813 156.824219 118.105469 153.519531 C 115.457031 152.414063 112.589844 151.753906 110.164063 150.210938 C 104.429688 147.121094 100.238281 141.167969 99.136719 134.769531 C 98.257813 129.257813 99.359375 123.523438 102.445313 118.890625 C 107.078125 111.394531 116.339844 107.421875 124.941406 108.746094 C 131.339844 108.746094 137.953125 108.304688 143.910156 105.878906 C 151.1875 103.011719 157.804688 97.941406 161.773438 91.101563 C 165.964844 83.605469 165.964844 74.339844 162.65625 66.621094 C 158.023438 55.371094 147.4375 46.992188 135.96875 43.464844 C 128.910156 40.816406 123.617188 34.421875 122.296875 26.921875 C 121.414063 22.511719 121.855469 17.660156 123.839844 13.46875 C 126.707031 6.410156 132.882813 1.339844 140.160156 0.234375 "/>
<g clip-path="url(#clip1)" clip-rule="nonzero">
<path style=" stroke:none;fill-rule:nonzero;fill:rgb(1.199341%,39.199829%,58.799744%);fill-opacity:1;" d="M 91.417969 59.5625 C 94.726563 54.710938 100.019531 50.960938 105.753906 49.859375 C 113.03125 48.535156 120.753906 51.183594 125.824219 56.695313 C 129.574219 60.667969 131.777344 65.960938 131.777344 71.253906 C 132.441406 82.058594 123.839844 92.425781 113.253906 93.96875 C 108.84375 94.410156 104.429688 93.75 100.238281 93.96875 C 97.371094 93.96875 94.726563 94.632813 91.859375 95.074219 L 90.976563 95.292969 C 83.476563 97.71875 76.421875 102.128906 71.789063 108.527344 C 66.9375 115.144531 65.394531 124.183594 67.820313 132.125 C 70.246094 140.726563 76.199219 148.003906 83.476563 153.296875 C 86.785156 155.503906 90.316406 157.710938 94.285156 158.8125 C 101.785156 161.238281 107.960938 168.074219 109.28125 175.796875 C 109.722656 179.765625 109.722656 183.734375 108.402344 187.484375 C 105.976563 193.878906 100.683594 199.171875 94.285156 201.15625 C 90.535156 202.480469 86.785156 202.480469 83.035156 202.039063 C 78.847656 201.597656 74.65625 202.480469 70.464844 202.921875 L 69.585938 203.144531 C 68.703125 203.363281 67.820313 203.585938 67.15625 203.804688 L 66.9375 203.804688 C 66.71875 204.023438 66.054688 204.246094 65.613281 204.246094 L 65.394531 204.246094 C 63.628906 204.90625 62.085938 205.570313 60.320313 206.449219 L 60.101563 206.449219 C 52.820313 210.421875 46.648438 217.035156 44.441406 225.199219 C 42.675781 230.933594 43.339844 237.328125 45.542969 242.84375 C 49.292969 252.769531 57.453125 260.707031 67.15625 264.898438 C 69.804688 266 72.671875 266.660156 75.097656 267.984375 C 81.492188 271.515625 85.90625 278.351563 86.34375 285.628906 C 86.785156 291.363281 85.023438 297.539063 81.273438 301.949219 C 77.082031 307.019531 70.464844 310.109375 64.070313 309.890625 C 57.894531 309.890625 52.160156 307.023438 47.96875 302.613281 C 43.78125 297.980469 41.574219 291.804688 42.234375 285.628906 C 42.898438 279.671875 42.234375 273.71875 40.46875 268.207031 C 37.605469 260.484375 32.53125 253.207031 25.695313 248.578125 C 22.386719 246.371094 18.855469 244.605469 15.105469 243.28125 C 7.828125 240.636719 1.875 234.019531 0.332031 226.519531 C -0.109375 223.214844 -0.109375 220.125 0.332031 216.816406 C 1.875 209.761719 7.386719 203.585938 14.226563 201.15625 C 18.414063 199.394531 23.269531 199.613281 27.679688 200.054688 C 37.382813 200.273438 47.085938 197.40625 54.804688 191.234375 C 60.320313 186.820313 64.289063 180.425781 65.613281 173.367188 C 66.9375 167.191406 65.171875 160.796875 62.304688 155.28125 C 57.453125 145.578125 48.410156 138.519531 38.042969 135.214844 C 29.886719 132.566406 23.929688 125.066406 22.828125 116.6875 C 22.386719 112.71875 22.828125 108.746094 24.371094 105.21875 C 27.019531 98.601563 33.191406 93.527344 40.03125 92.203125 C 44.21875 91.101563 48.410156 92.203125 52.601563 91.984375 C 66.496094 91.542969 79.949219 83.164063 86.125 70.59375 C 88.332031 67.28125 88.992188 63.09375 91.417969 59.5625 "/>
</g>
<path style=" stroke:none;fill-rule:nonzero;fill:rgb(42.399597%,69.398499%,86.299133%);fill-opacity:1;" d="M 361.152344 86.910156 C 371.960938 86.910156 382.765625 86.910156 393.351563 86.910156 C 391.808594 94.851563 390.042969 102.792969 388.5 110.730469 C 377.695313 110.730469 366.886719 110.730469 356.078125 110.730469 C 357.625 102.792969 359.386719 94.851563 361.152344 86.910156 "/>
<path style=" stroke:none;fill-rule:nonzero;fill:rgb(42.399597%,69.398499%,86.299133%);fill-opacity:1;" d="M 262.566406 165.648438 C 260.800781 173.808594 259.257813 181.75 257.492188 189.910156 C 257.054688 191.453125 256.832031 192.996094 256.832031 194.539063 C 261.242188 194.539063 265.652344 194.761719 270.066406 194.320313 C 275.136719 194.101563 280.210938 193.21875 284.621094 191.011719 C 288.371094 189.027344 291.457031 185.71875 292.339844 181.527344 C 292.5625 177.777344 293.222656 173.367188 290.355469 170.5 C 287.046875 166.753906 281.535156 166.3125 276.679688 166.089844 C 272.050781 165.429688 267.199219 165.867188 262.566406 165.648438 Z M 272.492188 118.011719 C 270.945313 126.390625 269.183594 134.773438 267.199219 143.152344 C 275.136719 142.710938 283.078125 143.8125 290.796875 141.390625 C 294.988281 140.066406 299.179688 136.976563 300.5 132.566406 C 301.601563 129.257813 301.164063 125.066406 298.734375 122.199219 C 296.53125 119.554688 293.003906 118.671875 289.695313 118.230469 C 283.960938 117.789063 278.226563 118.011719 272.492188 118.011719 M 244.480469 94.191406 C 263.667969 94.191406 282.855469 94.191406 302.046875 94.410156 C 310.867188 94.632813 320.128906 97.277344 326.746094 103.453125 C 330.714844 107.203125 333.144531 112.496094 334.023438 117.789063 C 335.128906 124.40625 334.023438 131.464844 330.496094 137.417969 C 325.863281 145.578125 317.484375 150.871094 308.441406 153.078125 C 306.675781 153.738281 304.691406 153.738281 302.925781 154.402344 C 309.542969 155.503906 316.378906 158.371094 320.792969 163.664063 C 324.320313 167.855469 325.863281 173.367188 325.863281 178.660156 C 325.863281 185.71875 323.878906 192.996094 319.910156 198.730469 C 315.277344 205.789063 307.777344 210.421875 300.058594 213.289063 C 293.882813 215.492188 287.269531 216.597656 280.652344 217.257813 C 270.066406 217.257813 259.480469 217.699219 248.890625 217.699219 C 238.746094 217.917969 228.820313 218.140625 218.675781 218.140625 C 227.058594 176.894531 235.878906 135.433594 244.480469 94.191406 "/>
<path style=" stroke:none;fill-rule:nonzero;fill:rgb(42.399597%,69.398499%,86.299133%);fill-opacity:1;" d="M 90.976563 95.292969 L 91.859375 95.074219 L 91.859375 95.292969 L 91.417969 95.515625 L 90.976563 95.292969 "/>
<path style=" stroke:none;fill-rule:nonzero;fill:rgb(42.399597%,69.398499%,86.299133%);fill-opacity:1;" d="M 444.300781 146.238281 C 438.785156 147.121094 433.714844 150.210938 430.40625 154.621094 C 426.433594 159.472656 424.007813 165.648438 422.90625 171.824219 C 422.246094 177.558594 422.246094 183.511719 424.890625 188.585938 C 426.875 192.554688 430.40625 195.863281 434.816406 196.96875 C 440.769531 198.511719 447.386719 197.1875 452.242188 193.660156 C 456.652344 190.570313 459.519531 185.71875 461.28125 180.644531 C 463.269531 174.25 463.929688 167.632813 463.488281 161.019531 C 463.046875 156.828125 461.28125 152.414063 457.976563 149.550781 C 454.003906 146.460938 448.933594 145.800781 444.300781 146.238281 Z M 442.09375 123.746094 C 447.609375 123.082031 453.121094 123.523438 458.636719 124.183594 C 466.796875 125.289063 474.957031 128.15625 481.792969 133.226563 C 487.527344 137.640625 491.941406 143.59375 494.367188 150.429688 C 496.792969 157.269531 497.234375 164.546875 496.570313 171.601563 C 495.910156 182.632813 492.378906 193.878906 485.101563 202.480469 C 477.382813 211.523438 466.132813 217.035156 454.667969 219.242188 C 448.050781 220.566406 441.433594 221.007813 434.597656 220.785156 C 426.433594 220.566406 418.054688 219.242188 410.777344 215.492188 C 404.820313 212.625 399.308594 207.992188 395.777344 202.480469 C 392.691406 197.628906 390.925781 192.113281 390.042969 186.601563 C 389.605469 182.191406 388.941406 177.777344 389.605469 173.589844 C 390.265625 165.429688 392.472656 157.269531 396.660156 150.210938 C 401.070313 142.710938 407.6875 136.316406 415.1875 131.902344 C 423.347656 126.832031 432.613281 124.183594 442.09375 123.746094 "/>
<path style=" stroke:none;fill-rule:nonzero;fill:rgb(42.399597%,69.398499%,86.299133%);fill-opacity:1;" d="M 553.695313 123.746094 C 566.484375 121.980469 579.277344 125.066406 590.96875 129.476563 C 588.980469 136.976563 586.335938 144.257813 584.351563 151.753906 C 582.367188 151.53125 580.820313 150.652344 579.058594 149.988281 C 574.644531 148.226563 570.015625 147.34375 565.382813 146.902344 C 558.324219 146.683594 551.046875 148.226563 545.53125 152.636719 C 538.253906 158.59375 535.386719 168.515625 535.609375 177.558594 C 535.828125 182.191406 537.8125 186.820313 541.121094 190.128906 C 545.09375 194.320313 551.046875 196.304688 557.003906 196.304688 C 564.058594 196.527344 571.117188 194.980469 577.734375 192.335938 C 576.851563 200.496094 574.867188 208.65625 573.324219 216.597656 C 564.28125 219.464844 554.796875 220.125 545.3125 220.125 C 535.828125 220.125 526.125 217.476563 518.40625 211.523438 C 510.023438 205.347656 504.511719 195.425781 502.96875 185.058594 C 501.203125 172.925781 503.628906 159.914063 510.246094 149.550781 C 514.214844 142.933594 519.730469 137.417969 526.125 133.226563 C 534.285156 127.933594 543.988281 124.847656 553.695313 123.746094 "/>
<path style=" stroke:none;fill-rule:nonzero;fill:rgb(42.399597%,69.398499%,86.299133%);fill-opacity:1;" d="M 641.472656 146.238281 C 633.972656 147.34375 627.800781 152.855469 624.269531 159.253906 C 620.078125 167.191406 618.09375 176.894531 620.742188 185.71875 C 622.285156 190.570313 625.8125 194.980469 630.667969 196.746094 C 639.046875 199.394531 649.191406 196.085938 654.042969 188.585938 C 658.894531 181.527344 660.660156 172.707031 660.441406 164.105469 C 660.660156 158.59375 658.894531 152.636719 654.484375 149.109375 C 650.738281 146.460938 645.882813 145.800781 641.472656 146.238281 Z M 639.265625 123.523438 C 648.75 122.640625 658.675781 123.523438 667.71875 126.832031 C 675.21875 129.699219 682.273438 134.550781 686.90625 141.167969 C 689.992188 145.578125 692.199219 150.652344 693.082031 155.945313 C 694.183594 161.238281 693.523438 166.53125 693.742188 171.824219 C 693.082031 179.984375 690.875 188.367188 686.6875 195.644531 C 682.273438 203.363281 675.660156 209.539063 667.71875 213.507813 C 660.21875 217.476563 651.839844 219.242188 643.457031 220.125 C 632.871094 221.007813 621.84375 220.566406 611.917969 217.035156 C 604.421875 214.390625 597.804688 209.539063 593.394531 202.921875 C 588.539063 195.644531 586.554688 186.601563 586.554688 178 C 586.554688 169.398438 588.320313 160.574219 592.070313 152.855469 C 596.039063 144.695313 602.4375 137.640625 610.375 132.785156 C 618.757813 127.273438 628.902344 124.40625 639.265625 123.523438 "/>
<g clip-path="url(#clip2)" clip-rule="nonzero">
<path style=" stroke:none;fill-rule:nonzero;fill:rgb(42.399597%,69.398499%,86.299133%);fill-opacity:1;" d="M 757.703125 127.054688 C 762.554688 124.847656 767.847656 123.746094 773.140625 123.304688 C 778.65625 123.082031 784.390625 123.746094 789.464844 126.171875 C 794.976563 128.816406 799.386719 133.667969 801.8125 139.402344 C 804.019531 144.476563 805.121094 149.988281 804.902344 155.503906 C 805.121094 159.914063 804.679688 164.324219 803.796875 168.515625 C 800.492188 185.058594 797.183594 201.820313 794.09375 218.359375 C 783.066406 218.359375 772.039063 218.359375 761.011719 218.359375 C 761.453125 214.171875 762.554688 210.199219 763.4375 206.230469 C 766.085938 193.660156 768.730469 181.089844 771.15625 168.515625 C 771.820313 164.546875 772.921875 159.914063 770.9375 156.164063 C 769.613281 153.078125 766.527344 151.09375 763.4375 150.652344 C 758.363281 149.769531 753.070313 150.871094 748.882813 153.738281 C 742.707031 157.929688 739.175781 164.988281 737.191406 171.824219 C 733.882813 187.261719 730.796875 202.921875 727.265625 218.359375 C 716.460938 218.140625 705.875 218.359375 695.066406 218.359375 C 699.699219 196.746094 704.109375 175.132813 708.519531 153.519531 C 710.507813 144.257813 712.492188 134.773438 713.152344 125.289063 C 723.078125 125.289063 733 125.289063 742.925781 125.289063 C 742.484375 130.359375 741.382813 135.433594 740.5 140.726563 C 745.351563 134.992188 751.085938 130.140625 757.703125 127.054688 "/>
</g>
<path style=" stroke:none;fill-rule:nonzero;fill:rgb(42.399597%,69.398499%,86.299133%);fill-opacity:1;" d="M 352.992188 125.289063 C 363.800781 125.289063 374.605469 125.289063 385.414063 125.289063 C 380.78125 148.226563 375.929688 170.941406 371.296875 193.660156 C 369.535156 201.820313 367.988281 210.199219 366.226563 218.359375 C 355.417969 218.359375 344.609375 218.359375 333.804688 218.359375 C 340.199219 187.261719 346.597656 156.164063 352.992188 125.289063 "/>
<path style=" stroke:none;fill-rule:nonzero;fill:rgb(42.399597%,69.398499%,86.299133%);fill-opacity:1;" d="M 69.144531 203.363281 L 70.023438 203.144531 L 70.023438 203.585938 L 69.363281 203.585938 L 69.144531 203.363281 "/>
</g>
</svg>
