<?xml version="1.0" standalone="no"?>
<svg xmlns:xlink="http://www.w3.org/1999/xlink" id="wave" style="transform:rotate(0deg); transition: 0.3s" viewBox="0 0 1440 110" version="1.1" xmlns="http://www.w3.org/2000/svg"><defs><linearGradient id="sw-gradient-0" x1="0" x2="0" y1="1" y2="0"><stop stop-color="rgba(35, 35, 35, 1)" offset="0%"/><stop stop-color="rgba(35, 35, 35, 1)" offset="100%"/></linearGradient></defs><path style="transform:translate(0, 0px); opacity:1" fill="url(#sw-gradient-0)" d="M0,66L18.5,69.7C36.9,73,74,81,111,86.2C147.7,92,185,95,222,91.7C258.5,88,295,77,332,73.3C369.2,70,406,73,443,73.3C480,73,517,70,554,73.3C590.8,77,628,88,665,82.5C701.5,77,738,55,775,55C812.3,55,849,77,886,88C923.1,99,960,99,997,82.5C1033.8,66,1071,33,1108,29.3C1144.6,26,1182,51,1218,66C1255.4,81,1292,84,1329,71.5C1366.2,59,1403,29,1440,16.5C1476.9,4,1514,7,1551,9.2C1587.7,11,1625,11,1662,23.8C1698.5,37,1735,62,1772,77C1809.2,92,1846,95,1883,84.3C1920,73,1957,48,1994,38.5C2030.8,29,2068,37,2105,33C2141.5,29,2178,15,2215,18.3C2252.3,22,2289,44,2326,45.8C2363.1,48,2400,29,2437,29.3C2473.8,29,2511,48,2548,53.2C2584.6,59,2622,51,2640,47.7L2658.5,44L2658.5,110L2640,110C2621.5,110,2585,110,2548,110C2510.8,110,2474,110,2437,110C2400,110,2363,110,2326,110C2289.2,110,2252,110,2215,110C2178.5,110,2142,110,2105,110C2067.7,110,2031,110,1994,110C1956.9,110,1920,110,1883,110C1846.2,110,1809,110,1772,110C1735.4,110,1698,110,1662,110C1624.6,110,1588,110,1551,110C1513.8,110,1477,110,1440,110C1403.1,110,1366,110,1329,110C1292.3,110,1255,110,1218,110C1181.5,110,1145,110,1108,110C1070.8,110,1034,110,997,110C960,110,923,110,886,110C849.2,110,812,110,775,110C738.5,110,702,110,665,110C627.7,110,591,110,554,110C516.9,110,480,110,443,110C406.2,110,369,110,332,110C295.4,110,258,110,222,110C184.6,110,148,110,111,110C73.8,110,37,110,18,110L0,110Z"/></svg>