<?xml version="1.0" standalone="no"?><svg xmlns="http://www.w3.org/2000/svg" viewBox="0 0 1440 320"><path fill="#232323" fill-opacity="1" d="M0,160L40,176C80,192,160,224,240,213.3C320,203,400,149,480,160C560,171,640,245,720,266.7C800,288,880,256,960,208C1040,160,1120,96,1200,74.7C1280,53,1360,75,1400,85.3L1440,96L1440,320L1400,320C1360,320,1280,320,1200,320C1120,320,1040,320,960,320C880,320,800,320,720,320C640,320,560,320,480,320C400,320,320,320,240,320C160,320,80,320,40,320L0,320Z"></path></svg>